<?xml version="1.0" encoding="utf-8"?>
<!-- Generator: Adobe Illustrator 27.9.0, SVG Export Plug-In . SVG Version: 6.00 Build 0)  -->
<svg version="1.1" id="Layer_1" xmlns="http://www.w3.org/2000/svg" xmlns:xlink="http://www.w3.org/1999/xlink" x="0px" y="0px"
	 viewBox="0 0 377 397.3" style="enable-background:new 0 0 377 397.3;" xml:space="preserve">
<style type="text/css">
	.st0{fill:#9E184C;}
	.st1{fill:url(#SVGID_1_);}
	.st2{fill:url(#SVGID_00000042014241545859785480000005332122059034055069_);}
	.st3{fill:url(#SVGID_00000120519672367147472110000013970759458789343369_);}
	.st4{fill:url(#SVGID_00000070816838740986725660000016240241769120180865_);}
	.st5{fill:url(#SVGID_00000052782647822192413630000009127667320817727887_);}
	.st6{fill:#8C093B;}
	.st7{fill:#CFCFCF;}
	.st8{fill:#C2C4C6;}
	.st9{fill:#9C9DA0;}
	.st10{fill:#8D8F93;}
	.st11{fill:#FFFFFF;}
	.st12{fill:#4D4D4D;}
	.st13{fill:#353535;}
</style>
<path class="st0" d="M319.7,193.8C319.7,193.8,319.9,193.8,319.7,193.8c0-21.1-57.7-156.9-129-156.9S61.9,172.7,61.9,193.7v0.1
	c0,0,0,0,0,0.1c0,19.5,87,122.3,129,122.3C231.9,316.3,319.9,213.4,319.7,193.8C319.9,193.9,319.7,193.8,319.7,193.8L319.7,193.8z"
	/>
<g>
	
		<linearGradient id="SVGID_1_" gradientUnits="userSpaceOnUse" x1="262.4146" y1="229.237" x2="290.7281" y2="229.237" gradientTransform="matrix(1 0 0 -1 0 400)">
		<stop  offset="1.598750e-02" style="stop-color:#FFC2A9"/>
		<stop  offset="1" style="stop-color:#FF9595"/>
	</linearGradient>
	<path class="st1" d="M277,191.1h-14.6v-40.6H277c7.6,0,13.7,5.8,13.7,13.1v14.5C290.7,185.1,284.5,191.1,277,191.1z"/>
	
		<linearGradient id="SVGID_00000152231167608206280580000016270158134273987219_" gradientUnits="userSpaceOnUse" x1="91.0429" y1="229.237" x2="119.3565" y2="229.237" gradientTransform="matrix(1 0 0 -1 0 400)">
		<stop  offset="1.598750e-02" style="stop-color:#FFC2A9"/>
		<stop  offset="1" style="stop-color:#FF9595"/>
	</linearGradient>
	<path style="fill:url(#SVGID_00000152231167608206280580000016270158134273987219_);" d="M104.7,191.1h14.6v-40.6h-14.6
		c-7.6,0-13.7,5.8-13.7,13.1v14.5C91,185.1,97.1,191.1,104.7,191.1z"/>
</g>
<g>
	
		<linearGradient id="SVGID_00000123400174915423610150000005940477040158822548_" gradientUnits="userSpaceOnUse" x1="141.032" y1="126.0753" x2="240.7391" y2="126.0753" gradientTransform="matrix(1 0 0 -1 0 400)">
		<stop  offset="1.598750e-02" style="stop-color:#FFC2A9"/>
		<stop  offset="1" style="stop-color:#FF9595"/>
	</linearGradient>
	<path style="fill:url(#SVGID_00000123400174915423610150000005940477040158822548_);" d="M240.7,263.4l-9.2-1.8
		c-6.5-1.2-11.2-6.8-11.2-13.1v-12.7h-60.4v13c0,6.4-4.7,11.9-11.2,13.1l-7.6,1.5v48.6h99.7V263.4L240.7,263.4z"/>
	
		<linearGradient id="SVGID_00000080179103593331749400000016545595494742864287_" gradientUnits="userSpaceOnUse" x1="111.9056" y1="240.9553" x2="269.8655" y2="240.9553" gradientTransform="matrix(1 0 0 -1 0 400)">
		<stop  offset="1.598750e-02" style="stop-color:#FFC2A9"/>
		<stop  offset="1" style="stop-color:#FF9595"/>
	</linearGradient>
	<path style="fill:url(#SVGID_00000080179103593331749400000016545595494742864287_);" d="M190.9,245.4L190.9,245.4
		c-43.6,0-79-33.9-79-75.7v-21.3c0-41.7,35.4-75.7,79-75.7l0,0c43.6,0,79,33.9,79,75.7v21.3C269.9,211.5,234.5,245.4,190.9,245.4z"
		/>
</g>
<linearGradient id="SVGID_00000023260870857560448040000006451094928360808608_" gradientUnits="userSpaceOnUse" x1="170.2938" y1="240.9553" x2="269.8655" y2="240.9553" gradientTransform="matrix(1 0 0 -1 0 400)">
	<stop  offset="1.598750e-02" style="stop-color:#FFC2A9"/>
	<stop  offset="1" style="stop-color:#FF9595"/>
</linearGradient>
<path style="fill:url(#SVGID_00000023260870857560448040000006451094928360808608_);" d="M190.9,72.8L190.9,72.8
	c-7.2,0-14.1,0.9-20.6,2.6c33.6,8.7,58.4,38.1,58.4,73v21.3c0,35-24.8,64.3-58.4,73c6.5,1.8,13.4,2.6,20.6,2.6l0,0
	c43.6,0,79-33.9,79-75.7v-21.3C269.9,106.7,234.5,72.8,190.9,72.8z"/>
<path class="st0" d="M190.9,150.7c71.1,0,128.7,23.6,129,43.1v-0.1c0-21-57.7-156.7-129-156.7s-129,135.7-129,156.7v0.1
	C62.2,174.3,119.8,150.7,190.9,150.7z"/>
<path class="st6" d="M190.9,36.9c-6.2,0-12.5,1.1-18.4,3c45.9,14.8,84.1,80.7,101.1,122.2c28.2,8.7,46.2,20.7,46.3,31.7v-0.1
	C319.9,172.7,262,36.9,190.9,36.9z"/>
<path class="st0" d="M365,392.9c-3.4-24.2-17.3-94.3-65.3-112.7l-54.7-16.4H136.7L82,280.2c-48,18.4-61.9,88.6-65.3,112.7
	c-0.7,4.3,3,8.3,7.6,8.3h333.1C362,401.2,365.6,397.3,365,392.9z"/>
<path class="st6" d="M365,392.9c-3.4-24.2-17.3-94.3-65.3-112.7l-54.7-16.4h-42.1l54.7,16.4c58.3,22.4,66.2,121,66.2,121h33.6
	C362,401.2,365.6,397.3,365,392.9z"/>
<path class="st7" d="M299,261.1H82.8c-7.2,0-13,5.6-13,12.5v118h242.1v-118C312,266.7,306.2,261.1,299,261.1z"/>
<path class="st8" d="M299,261.1h-41.2c7.2,0,13,5.6,13,12.5v118H312v-118C312,266.7,306.2,261.1,299,261.1z"/>
<path class="st9" d="M319.7,382.4H61.9c-4.9,0-8.8,3.8-8.8,8.5v1.9c0,4.7,3.9,8.5,8.8,8.5h257.8c4.9,0,8.8-3.8,8.8-8.5v-1.9
	C328.7,386.2,324.6,382.4,319.7,382.4z"/>
<path class="st10" d="M319.7,382.4h-32.6v18.8h32.6c4.9,0,8.8-3.8,8.8-8.5v-1.9C328.7,386.2,324.6,382.4,319.7,382.4z"/>
<ellipse class="st11" cx="190.9" cy="326.7" rx="18.2" ry="17.5"/>
<g>
	<path class="st12" d="M210.5,170.6c-14.2-5-24.9-5.1-39.3,0l0,0c1.1,2,1.5,3,2.6,5c0.3,0.5,0.7,1.1,0.9,1.6
		c12.3-4.1,20.2-4.1,32.4,0C208.5,174.7,209.2,173.3,210.5,170.6z"/>
	<path class="st12" d="M269.9,169.7v-3.9h-27.1l0,0v5.6c0,0.7,0,1.2,0.1,1.9h27C269.9,172.1,269.9,170.9,269.9,169.7z"/>
	<path class="st12" d="M111.9,165.8v3.9c0,1.2,0,2.3,0.1,3.5h27.1v-7.5H111.9z"/>
	<path class="st12" d="M168.3,190.1H139c-3.3,0-5.8-2.4-5.8-5.6v-16c0-3.1,2.6-5.6,5.8-5.6h36.4c3.3,0,5.8,2.4,5.8,5.6v9.1
		C181.3,184.4,175.4,190.1,168.3,190.1z"/>
	<path class="st12" d="M213.5,190.1h29.3c3.3,0,5.8-2.4,5.8-5.6v-16c0-3.1-2.6-5.6-5.8-5.6h-36.4c-3.3,0-5.8,2.4-5.8,5.6v9.1
		C200.5,184.4,206.3,190.1,213.5,190.1z"/>
</g>
<g>
	<path class="st13" d="M242.8,162.9h-35.4v25.6c1.9,0.9,3.9,1.5,6.2,1.5h29.3c3.3,0,5.8-2.4,5.8-5.6v-16
		C248.6,165.5,246,162.9,242.8,162.9z"/>
	<path class="st13" d="M175.4,162.9h-35.5V190h28.2c7.2,0,13-5.6,13-12.5v-9.1C181.3,165.5,178.7,162.9,175.4,162.9z"/>
</g>
<g>
	<path class="st13" d="M199.4,228.2h-20.6v20.9h16.4c4.2,0,7.6-4.3,7.6-9.6v-6.9C202.8,230.1,201.3,228.2,199.4,228.2z"/>
</g>
<g>
	<path class="st11" d="M213.6,100.3h-2v-1.8c0-1.1-0.8-1.8-2-1.8h-37.7c-1.2,0-2,0.7-2,1.8v1.8h-2c-1.2,0-2,0.7-2,1.8v21.1
		c0,2.7,1.6,4.9,4.2,6.2c0.7,2.4,3.1,4.5,6.2,4.5c2.7,0,5-1.4,5.8-3.5h17.6c0.8,2.2,3.1,3.5,5.8,3.5c3.1,0,5.7-1.9,6.2-4.5
		c2.6-1.2,4.2-3.5,4.2-6.2v-21.1C215.7,101,214.9,100.3,213.6,100.3z M171.8,98.6h37.7v1.8h-37.7V98.6z M176,132
		c-1.6,0-3-0.7-3.8-1.9c-0.3-0.1-0.3-0.5-0.4-0.7l0,0c0-0.4,0-0.5,0-0.9c0-0.4,0-0.7,0.3-0.9v-0.1c0.3-0.4,0.3-0.5,0.4-0.9l0,0
		c0.8-1.1,2-1.6,3.5-1.6c1.5,0,3,0.7,3.5,1.8c0.3,0.1,0.3,0.5,0.4,0.7c0,0,0,0,0,0.1c0.3,0.4,0.3,0.5,0.3,0.9s0,0.5-0.3,0.9
		c0,0,0,0,0,0.1c0,0.4-0.3,0.5-0.4,0.7C178.8,131.3,177.5,132,176,132z M194.8,117.9h-2v1.8h2v7h-8.4v-15.9h8.4V117.9z M205.2,132
		c-1.5,0-3-0.7-3.5-1.8c-0.3-0.1-0.3-0.5-0.4-0.7c0,0,0,0,0-0.1c0-0.4-0.3-0.5-0.3-0.9s0-0.5,0.3-0.9c0,0,0,0,0-0.1
		c0-0.4,0.3-0.5,0.4-0.7c0.7-1.1,2-1.8,3.5-1.8s2.7,0.5,3.5,1.6l0,0c0.3,0.1,0.4,0.5,0.4,0.9v0.1c0,0.4,0.3,0.5,0.3,0.9
		c0,0.4,0,0.5-0.3,0.9l0,0c0,0.1-0.3,0.5-0.4,0.7C208.1,131.3,206.9,132,205.2,132z M211.5,123.2c0,0.9-0.4,1.8-1.1,2.3
		c-1.2-1.4-3.1-2.3-5.3-2.3c-2.7,0-5,1.4-5.8,3.5h-2.6v-15.9c0-1.1-0.8-1.8-2-1.8h-8.4c-1.2,0-2,0.7-2,1.8v15.9h-2.6
		c-0.8-2.2-3.1-3.5-5.8-3.5c-2,0-3.9,0.9-5.3,2.3c-0.7-0.5-1.1-1.4-1.1-2.3v-19.4h41.7v19.4L211.5,123.2L211.5,123.2z"/>
	<path class="st11" d="M182.2,107.4h-10.4v7h10.4V107.4z M180.2,112.6H174v-3.5h6.2V112.6z"/>
	<path class="st11" d="M209.4,107.4H199v7h10.4V107.4z M207.3,112.6H201v-3.5h6.2V112.6z"/>
</g>
</svg>
