<?xml version="1.0" encoding="utf-8"?>
<!-- Generator: Adobe Illustrator 27.9.0, SVG Export Plug-In . SVG Version: 6.00 Build 0)  -->
<svg version="1.1" id="Layer_1" xmlns="http://www.w3.org/2000/svg" xmlns:xlink="http://www.w3.org/1999/xlink" x="0px" y="0px"
	 viewBox="0 0 1831.2 771.7" style="enable-background:new 0 0 1831.2 771.7;" xml:space="preserve">
<style type="text/css">
	.st0{fill:#DCEEFF;}
	.st1{fill:none;stroke:#0019FF;stroke-width:3;stroke-linecap:round;stroke-linejoin:round;stroke-miterlimit:10;}
	.st2{fill:#0019FF;}
	.st3{fill:#FFFFFF;}
	.st4{fill:none;stroke:#0019FF;stroke-linecap:round;stroke-linejoin:round;stroke-miterlimit:10;}
</style>
<g>
	<path class="st0" d="M1426.7,171c-63.1-4.6-77.6,95.4-25.2,103.3C1444.4,280.8,1507.4,176.9,1426.7,171z"/>
	<path class="st0" d="M556.7,217.8c-30.5,49.9,30.1,167.7,100.7,63.3C707.2,207.2,602.7,142.6,556.7,217.8z"/>
	<path class="st0" d="M120.3,663.8c-18.2-79.8-34.8-260.3,90.1-325.2c183.4-95.3,314.6,92.8,426.8,64.6S889.9,139.1,1077,155.4
		c214.6,18.8,192.3,258.8,360.3,214.1c272.3-72.3,338.3,154.5,268.9,294.2C1374.8,663.8,120.3,663.8,120.3,663.8z"/>
	<line class="st1" x1="120.3" y1="663.8" x2="1705.2" y2="663.8"/>
	<g>
		<path class="st2" d="M1016.6,344.4v-41.2h4.6v37.1h11.8v4.2H1016.6z"/>
		<path class="st2" d="M1042.5,303.2v41.2h-4.6v-41.2H1042.5z"/>
		<path class="st2" d="M1063.9,344.4h-4.4l-6.8-32.8v32.9h-4v-41.2h6.4l6.8,32.9l6.5-32.9h6.4v41.2h-4.4v-33.2L1063.9,344.4z"/>
		<path class="st2" d="M1085.7,336.1l-1.6,8.3h-4.2l7.9-41.2h6.7l7.9,41.2h-4.6l-1.6-8.3H1085.7z M1086.2,332.2h9.2l-4.7-23.8
			L1086.2,332.2z"/>
	</g>
	<g>
		<path class="st3" d="M1106.2,461.9c-7,0-12.6,5.6-12.6,12.6h25.2C1118.8,467.6,1113.1,461.9,1106.2,461.9z"/>
		<path class="st3" d="M1131.4,461.9c-7,0-12.6,5.6-12.6,12.6h25.2C1144,467.6,1138.3,461.9,1131.4,461.9z"/>
		<path class="st3" d="M1104.2,480.1c-2.8,5.2-0.9,11.7,4.3,14.5l10.2-18.8C1113.6,473,1107.1,474.9,1104.2,480.1z"/>
		<path class="st3" d="M1133.3,480.1c2.8,5.2,0.9,11.7-4.3,14.5l-10.2-18.8C1124,473,1130.5,474.9,1133.3,480.1z"/>
		<path class="st1" d="M1106.2,461.9c-7,0-12.6,5.6-12.6,12.6h25.2C1118.8,467.6,1113.1,461.9,1106.2,461.9z"/>
		<path class="st1" d="M1131.4,461.9c-7,0-12.6,5.6-12.6,12.6h25.2C1144,467.6,1138.3,461.9,1131.4,461.9z"/>
		<path class="st1" d="M1104.2,480.1c-2.8,5.2-0.9,11.7,4.3,14.5l10.2-18.8C1113.6,473,1107.1,474.9,1104.2,480.1z"/>
		<path class="st1" d="M1133.3,480.1c2.8,5.2,0.9,11.7-4.3,14.5l-10.2-18.8C1124,473,1130.5,474.9,1133.3,480.1z"/>
		<line class="st4" x1="1118.8" y1="663.8" x2="1118.8" y2="475.2"/>
	</g>
	<g>
		<path class="st3" d="M427.9,485.5c-7,0-12.6,5.6-12.6,12.6h25.2C440.5,491.2,434.9,485.5,427.9,485.5z"/>
		<path class="st3" d="M453.1,485.5c-7,0-12.6,5.6-12.6,12.6h25.2C465.7,491.2,460.1,485.5,453.1,485.5z"/>
		<path class="st3" d="M426,503.8c-2.8,5.2-0.9,11.7,4.3,14.5l10.2-18.8C435.3,496.6,428.8,498.6,426,503.8z"/>
		<path class="st3" d="M455,503.8c2.8,5.2,0.9,11.7-4.3,14.5l-10.2-18.8C445.7,496.6,452.2,498.6,455,503.8z"/>
		<path class="st1" d="M427.9,485.5c-7,0-12.6,5.6-12.6,12.6h25.2C440.5,491.2,434.9,485.5,427.9,485.5z"/>
		<path class="st1" d="M453.1,485.5c-7,0-12.6,5.6-12.6,12.6h25.2C465.7,491.2,460.1,485.5,453.1,485.5z"/>
		<path class="st1" d="M426,503.8c-2.8,5.2-0.9,11.7,4.3,14.5l10.2-18.8C435.3,496.6,428.8,498.6,426,503.8z"/>
		<path class="st1" d="M455,503.8c2.8,5.2,0.9,11.7-4.3,14.5l-10.2-18.8C445.7,496.6,452.2,498.6,455,503.8z"/>
		<line class="st4" x1="440.5" y1="663.8" x2="440.5" y2="498.8"/>
	</g>
	<g>
		<path class="st3" d="M1031.8,663.8c-11.9,0-11.9-14-23.8-14c-11.9,0-11.9,14-23.8,14c-11.9,0-11.9-14-23.8-14
			c-11.9,0-11.9,14-23.8,14c-11.9,0-11.9-14-23.8-14c-11.9,0-11.9,14-23.8,14c-11.9,0-11.9-14-23.8-14s-11.9,14-23.8,14
			c-11.9,0-11.9-14-23.8-14c-11.9,0-11.9,14-23.8,14H1031.8z"/>
		<path class="st1" d="M793.3,663.8c11.9,0,11.9-14,23.8-14c11.9,0,11.9,14,23.8,14c11.9,0,11.9-14,23.8-14s11.9,14,23.8,14
			c11.9,0,11.9-14,23.8-14c11.9,0,11.9,14,23.8,14c11.9,0,11.9-14,23.8-14c11.9,0,11.9,14,23.8,14c11.9,0,11.9-14,23.8-14
			c11.9,0,11.9,14,23.8,14H793.3z"/>
	</g>
	<g>
		<g>
			<line class="st1" x1="908.8" y1="334.4" x2="908.8" y2="345"/>
			<line class="st1" x1="914.1" y1="339.7" x2="903.5" y2="339.7"/>
		</g>
		<g>
			<line class="st1" x1="1279" y1="386.5" x2="1279" y2="397.1"/>
			<line class="st1" x1="1284.3" y1="391.8" x2="1273.7" y2="391.8"/>
		</g>
		<g>
			<line class="st1" x1="1071.2" y1="209.3" x2="1071.2" y2="218.1"/>
			<line class="st1" x1="1075.6" y1="213.7" x2="1066.8" y2="213.7"/>
		</g>
		<g>
			<line class="st1" x1="1571.2" y1="425.4" x2="1571.2" y2="436"/>
			<line class="st1" x1="1576.5" y1="430.7" x2="1565.9" y2="430.7"/>
		</g>
		<g>
			<line class="st1" x1="395.8" y1="399.2" x2="395.8" y2="409.8"/>
			<line class="st1" x1="401.1" y1="404.5" x2="390.5" y2="404.5"/>
		</g>
		<g>
			<line class="st1" x1="181.2" y1="474.3" x2="181.2" y2="484.9"/>
			<line class="st1" x1="186.5" y1="479.6" x2="175.9" y2="479.6"/>
		</g>
		<g>
			<line class="st1" x1="855.2" y1="586.9" x2="855.2" y2="602.7"/>
			<line class="st1" x1="863.1" y1="594.8" x2="847.3" y2="594.8"/>
		</g>
		<g>
			<line class="st1" x1="1073.2" y1="423.3" x2="1073.2" y2="439.1"/>
			<line class="st1" x1="1081.1" y1="431.2" x2="1065.3" y2="431.2"/>
		</g>
	</g>
	<g>
		<polygon class="st3" points="263.5,579.4 258.6,579.4 253.4,663.8 261,663.8 268.7,663.8 		"/>
		<circle class="st3" cx="261" cy="475.5" r="2.9"/>
		<circle class="st3" cx="261" cy="575.3" r="4.8"/>
		<g>
			<polyline class="st3" points="267,514.1 273,489.6 263.7,482.4 261,482.4 258.4,482.4 249.1,489.6 255.1,514.1 			"/>
		</g>
		<path class="st1" d="M253.4,522.4c-0.2-3.4,2.5-3.9,4.2-3.2c3.4,1.2,3.5,6.8,3.5,6.8v44.7"/>
		<polyline class="st1" points="261,482.4 258.4,482.4 249.1,489.6 255.1,514.1 261,514.1 		"/>
		<polyline class="st1" points="261,482.4 263.7,482.4 273,489.6 267,514.1 261,514.1 		"/>
		<path class="st1" d="M268.7,522.4c0.2-3.4-2.5-3.9-4.2-3.2c-3.4,1.2-3.5,6.8-3.5,6.8v44.7"/>
		<circle class="st1" cx="261" cy="475.5" r="2.9"/>
		<line class="st1" x1="261" y1="472.6" x2="261" y2="467.8"/>
		<circle class="st1" cx="261" cy="575.3" r="4.8"/>
		<polyline class="st1" points="258.6,579.4 253.4,663.8 261,663.8 		"/>
		<polyline class="st1" points="263.5,579.4 268.7,663.8 261,663.8 		"/>
		<line class="st4" x1="249.1" y1="489.6" x2="273" y2="489.6"/>
		<polyline class="st4" points="258.2,514.1 256.3,489.6 261,482.4 		"/>
		<polyline class="st4" points="263.9,514.1 265.8,489.6 261,482.4 		"/>
		<line class="st4" x1="266.2" y1="622.8" x2="255.9" y2="622.8"/>
		<line class="st4" x1="255.8" y1="624.9" x2="266.3" y2="624.9"/>
		<line class="st4" x1="261" y1="618.6" x2="261" y2="600.5"/>
		<line class="st4" x1="253.7" y1="659.2" x2="268.5" y2="659.2"/>
		<line class="st4" x1="259.1" y1="630.5" x2="258" y2="654.7"/>
		<line class="st4" x1="263" y1="630.5" x2="264.1" y2="654.7"/>
	</g>
	<g>
		<g>
			<path class="st3" d="M653.2,501.5l4.8-2.9l2.9-16.5c0,0-0.3-2.8-3.9-5.9c-3.8-3.4-3.9-7.3-3.9-7.3s-0.1,3.9-3.9,7.3
				c-3.5,3.1-3.9,5.9-3.9,5.9l2.9,16.5L653.2,501.5z"/>
		</g>
		<g>
			<path class="st3" d="M680.8,501.5l4.8-2.9l2.9-16.5c0,0-0.3-2.8-3.9-5.9c-3.8-3.4-3.9-7.3-3.9-7.3s-0.1,3.9-3.9,7.3
				c-3.5,3.1-3.9,5.9-3.9,5.9l2.9,16.5L680.8,501.5z"/>
		</g>
		<g>
			<polygon class="st3" points="667,663.8 676.3,663.8 670.5,618.8 667,618.8 663.4,618.8 657.6,663.8 			"/>
		</g>
		<path class="st1" d="M653.2,468.9c0,0-0.1,3.9-3.9,7.3c-3.5,3.1-3.9,5.9-3.9,5.9l2.9,16.5l4.8,2.9"/>
		<line class="st1" x1="648.8" y1="501.5" x2="667.1" y2="501.5"/>
		<path class="st1" d="M653.2,468.9c0,0,0.1,3.9,3.9,7.3c3.5,3.1,3.9,5.9,3.9,5.9l-2.9,16.5l-4.8,2.9"/>
		<path class="st1" d="M680.8,468.9c0,0,0.1,3.9,3.9,7.3c3.5,3.1,3.9,5.9,3.9,5.9l-2.9,16.5l-4.8,2.9"/>
		<line class="st1" x1="685.2" y1="501.5" x2="667" y2="501.5"/>
		<path class="st1" d="M680.8,468.9c0,0-0.1,3.9-3.9,7.3c-3.5,3.1-3.9,5.9-3.9,5.9l2.9,16.5l4.8,2.9"/>
		<line class="st1" x1="667" y1="492" x2="667" y2="618.8"/>
		<polyline class="st1" points="667,618.8 663.4,618.8 657.6,663.8 667,663.8 		"/>
		<line class="st1" x1="664.4" y1="564.9" x2="669.5" y2="564.9"/>
		<line class="st1" x1="664.4" y1="569.3" x2="669.5" y2="569.3"/>
		<line class="st1" x1="664.4" y1="573.7" x2="669.5" y2="573.7"/>
		<polyline class="st1" points="667,618.8 670.5,618.8 676.3,663.8 667,663.8 		"/>
		<line class="st4" x1="658.6" y1="656.2" x2="675.3" y2="656.2"/>
		<line class="st4" x1="665.5" y1="635.6" x2="664.3" y2="652.2"/>
		<line class="st4" x1="668.5" y1="635.6" x2="669.6" y2="652.2"/>
		<line class="st4" x1="661.9" y1="631" x2="672" y2="631"/>
		<line class="st4" x1="645.4" y1="482.1" x2="661" y2="482.1"/>
		<line class="st4" x1="673" y1="482.1" x2="688.6" y2="482.1"/>
		<line class="st4" x1="650.3" y1="482.1" x2="653.2" y2="501.5"/>
		<line class="st4" x1="656.2" y1="482.1" x2="653.2" y2="501.5"/>
		<line class="st4" x1="677.9" y1="482.1" x2="680.8" y2="501.5"/>
		<line class="st4" x1="683.8" y1="482.1" x2="680.8" y2="501.5"/>
		<path class="st4" d="M650.2,507c0.6-2,2.7-3.9,6.9-3.9s9.8,5.2,9.8,13.2"/>
		<path class="st4" d="M683.7,507c-0.6-2-2.7-3.9-6.9-3.9s-9.8,5.2-9.8,13.2"/>
	</g>
	<g>
		<path class="st3" d="M311.8,535c-7,0-12.6,5.6-12.6,12.6h25.2C324.4,540.7,318.8,535,311.8,535z"/>
		<path class="st3" d="M337,535c-7,0-12.6,5.6-12.6,12.6h25.2C349.6,540.7,344,535,337,535z"/>
		<path class="st3" d="M309.9,553.2c-2.8,5.2-0.9,11.7,4.3,14.5l10.2-18.8C319.2,546.1,312.7,548,309.9,553.2z"/>
		<path class="st3" d="M339,553.2c2.8,5.2,0.9,11.7-4.3,14.5L324.4,549C329.6,546.1,336.1,548,339,553.2z"/>
		<path class="st1" d="M311.8,535c-7,0-12.6,5.6-12.6,12.6h25.2C324.4,540.7,318.8,535,311.8,535z"/>
		<path class="st1" d="M337,535c-7,0-12.6,5.6-12.6,12.6h25.2C349.6,540.7,344,535,337,535z"/>
		<path class="st1" d="M309.9,553.2c-2.8,5.2-0.9,11.7,4.3,14.5l10.2-18.8C319.2,546.1,312.7,548,309.9,553.2z"/>
		<path class="st1" d="M339,553.2c2.8,5.2,0.9,11.7-4.3,14.5L324.4,549C329.6,546.1,336.1,548,339,553.2z"/>
		<line class="st4" x1="324.4" y1="663.8" x2="324.4" y2="548.3"/>
	</g>
	<g>
		<path class="st3" d="M793,356.2h-5c-0.2-5.7-0.4-9-0.4-9h-30.5h-30.5c0,0-0.1,3.3-0.4,9h-5c-1.1,26.7-4.1,106.9-4.1,155.5
			c0,59,5,152,5,152h5h30h30h5c0,0,5-93,5-152C797.1,463.1,794.1,383,793,356.2z"/>
		<path class="st4" d="M726.2,356.2c-1.1,26.7-4.1,106.9-4.1,155.5c0,59,5,152,5,152"/>
		<line class="st4" x1="757.1" y1="354.3" x2="757.1" y2="357.9"/>
		<line class="st4" x1="748.9" y1="354.3" x2="748.9" y2="357.9"/>
		<line class="st4" x1="740.8" y1="354.3" x2="740.8" y2="357.9"/>
		<line class="st4" x1="732.6" y1="354.3" x2="732.6" y2="357.9"/>
		<line class="st4" x1="757.1" y1="366.8" x2="757.1" y2="370.4"/>
		<line class="st4" x1="748.9" y1="366.8" x2="748.9" y2="370.4"/>
		<line class="st4" x1="740.8" y1="366.8" x2="740.8" y2="370.4"/>
		<line class="st4" x1="732.6" y1="366.8" x2="732.6" y2="370.4"/>
		<line class="st4" x1="757.1" y1="379.3" x2="757.1" y2="382.9"/>
		<line class="st4" x1="748.9" y1="379.3" x2="748.9" y2="382.9"/>
		<line class="st4" x1="740.8" y1="379.3" x2="740.8" y2="382.9"/>
		<line class="st4" x1="732.6" y1="379.3" x2="732.6" y2="382.9"/>
		<line class="st4" x1="757.1" y1="391.8" x2="757.1" y2="395.4"/>
		<line class="st4" x1="748.9" y1="391.8" x2="748.9" y2="395.4"/>
		<line class="st4" x1="740.8" y1="391.8" x2="740.8" y2="395.4"/>
		<line class="st4" x1="732.6" y1="391.8" x2="732.6" y2="395.4"/>
		<line class="st4" x1="757.1" y1="404.3" x2="757.1" y2="408"/>
		<line class="st4" x1="748.9" y1="404.3" x2="748.9" y2="408"/>
		<line class="st4" x1="740.8" y1="404.3" x2="740.8" y2="408"/>
		<line class="st4" x1="732.6" y1="404.3" x2="732.6" y2="408"/>
		<line class="st4" x1="757.1" y1="416.8" x2="757.1" y2="420.5"/>
		<line class="st4" x1="748.9" y1="416.8" x2="748.9" y2="420.5"/>
		<line class="st4" x1="740.8" y1="416.8" x2="740.8" y2="420.5"/>
		<line class="st4" x1="732.6" y1="416.8" x2="732.6" y2="420.5"/>
		<line class="st4" x1="757.1" y1="429.4" x2="757.1" y2="433"/>
		<line class="st4" x1="748.9" y1="429.4" x2="748.9" y2="433"/>
		<line class="st4" x1="740.8" y1="429.4" x2="740.8" y2="433"/>
		<line class="st4" x1="732.6" y1="429.4" x2="732.6" y2="433"/>
		<line class="st4" x1="757.1" y1="441.9" x2="757.1" y2="445.5"/>
		<line class="st4" x1="748.9" y1="441.9" x2="748.9" y2="445.5"/>
		<line class="st4" x1="740.8" y1="441.9" x2="740.8" y2="445.5"/>
		<line class="st4" x1="732.6" y1="441.9" x2="732.6" y2="445.5"/>
		<line class="st4" x1="757.1" y1="454.4" x2="757.1" y2="458"/>
		<line class="st4" x1="748.9" y1="454.4" x2="748.9" y2="458"/>
		<line class="st4" x1="740.8" y1="454.4" x2="740.8" y2="458"/>
		<line class="st4" x1="732.6" y1="454.4" x2="732.6" y2="458"/>
		<line class="st4" x1="757.1" y1="466.9" x2="757.1" y2="470.5"/>
		<line class="st4" x1="748.9" y1="466.9" x2="748.9" y2="470.5"/>
		<line class="st4" x1="740.8" y1="466.9" x2="740.8" y2="470.5"/>
		<line class="st4" x1="732.6" y1="466.9" x2="732.6" y2="470.5"/>
		<line class="st4" x1="757.1" y1="479.4" x2="757.1" y2="483"/>
		<line class="st4" x1="748.9" y1="479.4" x2="748.9" y2="483"/>
		<line class="st4" x1="740.8" y1="479.4" x2="740.8" y2="483"/>
		<line class="st4" x1="732.6" y1="479.4" x2="732.6" y2="483"/>
		<line class="st4" x1="757.1" y1="491.9" x2="757.1" y2="495.6"/>
		<line class="st4" x1="748.9" y1="491.9" x2="748.9" y2="495.6"/>
		<line class="st4" x1="740.8" y1="491.9" x2="740.8" y2="495.6"/>
		<line class="st4" x1="732.6" y1="491.9" x2="732.6" y2="495.6"/>
		<line class="st4" x1="757.1" y1="504.5" x2="757.1" y2="508.1"/>
		<line class="st4" x1="748.9" y1="504.5" x2="748.9" y2="508.1"/>
		<line class="st4" x1="740.8" y1="504.5" x2="740.8" y2="508.1"/>
		<line class="st4" x1="732.6" y1="504.5" x2="732.6" y2="508.1"/>
		<line class="st4" x1="757.1" y1="517" x2="757.1" y2="520.6"/>
		<line class="st4" x1="748.9" y1="517" x2="748.9" y2="520.6"/>
		<line class="st4" x1="740.8" y1="517" x2="740.8" y2="520.6"/>
		<line class="st4" x1="732.6" y1="517" x2="732.6" y2="520.6"/>
		<line class="st4" x1="757.1" y1="529.5" x2="757.1" y2="533.1"/>
		<line class="st4" x1="748.9" y1="529.5" x2="748.9" y2="533.1"/>
		<line class="st4" x1="740.8" y1="529.5" x2="740.8" y2="533.1"/>
		<line class="st4" x1="732.6" y1="529.5" x2="732.6" y2="533.1"/>
		<line class="st4" x1="757.1" y1="542" x2="757.1" y2="545.6"/>
		<line class="st4" x1="748.9" y1="542" x2="748.9" y2="545.6"/>
		<line class="st4" x1="740.8" y1="542" x2="740.8" y2="545.6"/>
		<line class="st4" x1="732.6" y1="542" x2="732.6" y2="545.6"/>
		<line class="st4" x1="757.1" y1="554.5" x2="757.1" y2="558.1"/>
		<line class="st4" x1="748.9" y1="554.5" x2="748.9" y2="558.1"/>
		<line class="st4" x1="740.8" y1="554.5" x2="740.8" y2="558.1"/>
		<line class="st4" x1="732.6" y1="554.5" x2="732.6" y2="558.1"/>
		<line class="st4" x1="757.1" y1="567" x2="757.1" y2="570.7"/>
		<line class="st4" x1="748.9" y1="567" x2="748.9" y2="570.7"/>
		<line class="st4" x1="740.8" y1="567" x2="740.8" y2="570.7"/>
		<line class="st4" x1="732.6" y1="567" x2="732.6" y2="570.7"/>
		<line class="st4" x1="757.1" y1="579.5" x2="757.1" y2="583.2"/>
		<line class="st4" x1="748.9" y1="579.5" x2="748.9" y2="583.2"/>
		<line class="st4" x1="740.8" y1="579.5" x2="740.8" y2="583.2"/>
		<line class="st4" x1="732.6" y1="579.5" x2="732.6" y2="583.2"/>
		<line class="st4" x1="757.1" y1="592.1" x2="757.1" y2="595.7"/>
		<line class="st4" x1="748.9" y1="592.1" x2="748.9" y2="595.7"/>
		<line class="st4" x1="740.8" y1="592.1" x2="740.8" y2="595.7"/>
		<line class="st4" x1="732.6" y1="592.1" x2="732.6" y2="595.7"/>
		<line class="st4" x1="757.1" y1="604.6" x2="757.1" y2="608.2"/>
		<line class="st4" x1="748.9" y1="604.6" x2="748.9" y2="608.2"/>
		<line class="st4" x1="740.8" y1="604.6" x2="740.8" y2="608.2"/>
		<line class="st4" x1="732.6" y1="604.6" x2="732.6" y2="608.2"/>
		<line class="st4" x1="757.1" y1="617.1" x2="757.1" y2="620.7"/>
		<line class="st4" x1="748.9" y1="617.1" x2="748.9" y2="620.7"/>
		<line class="st4" x1="740.8" y1="617.1" x2="740.8" y2="620.7"/>
		<line class="st4" x1="732.6" y1="617.1" x2="732.6" y2="620.7"/>
		<line class="st4" x1="757.1" y1="629.6" x2="757.1" y2="633.2"/>
		<line class="st4" x1="748.9" y1="629.6" x2="748.9" y2="633.2"/>
		<line class="st4" x1="740.8" y1="629.6" x2="740.8" y2="633.2"/>
		<line class="st4" x1="732.6" y1="629.6" x2="732.6" y2="633.2"/>
		<line class="st4" x1="757.1" y1="642.1" x2="757.1" y2="645.7"/>
		<line class="st4" x1="748.9" y1="642.1" x2="748.9" y2="645.7"/>
		<line class="st4" x1="740.8" y1="642.1" x2="740.8" y2="645.7"/>
		<line class="st4" x1="732.6" y1="642.1" x2="732.6" y2="645.7"/>
		<line class="st4" x1="757.1" y1="654.6" x2="757.1" y2="658.3"/>
		<line class="st4" x1="748.9" y1="654.6" x2="748.9" y2="658.3"/>
		<line class="st4" x1="740.8" y1="654.6" x2="740.8" y2="658.3"/>
		<line class="st4" x1="732.6" y1="654.6" x2="732.6" y2="658.3"/>
		<path class="st4" d="M788,356.2c1.1,26.7,4.1,106.9,4.1,155.5c0,59-5,152-5,152"/>
		<line class="st4" x1="765.3" y1="354.3" x2="765.3" y2="357.9"/>
		<line class="st4" x1="773.4" y1="354.3" x2="773.4" y2="357.9"/>
		<line class="st4" x1="781.6" y1="354.3" x2="781.6" y2="357.9"/>
		<line class="st4" x1="765.3" y1="366.8" x2="765.3" y2="370.4"/>
		<line class="st4" x1="773.4" y1="366.8" x2="773.4" y2="370.4"/>
		<line class="st4" x1="781.6" y1="366.8" x2="781.6" y2="370.4"/>
		<line class="st4" x1="765.3" y1="379.3" x2="765.3" y2="382.9"/>
		<line class="st4" x1="773.4" y1="379.3" x2="773.4" y2="382.9"/>
		<line class="st4" x1="781.6" y1="379.3" x2="781.6" y2="382.9"/>
		<line class="st4" x1="765.3" y1="391.8" x2="765.3" y2="395.4"/>
		<line class="st4" x1="773.4" y1="391.8" x2="773.4" y2="395.4"/>
		<line class="st4" x1="781.6" y1="391.8" x2="781.6" y2="395.4"/>
		<line class="st4" x1="765.3" y1="404.3" x2="765.3" y2="408"/>
		<line class="st4" x1="773.4" y1="404.3" x2="773.4" y2="408"/>
		<line class="st4" x1="781.6" y1="404.3" x2="781.6" y2="408"/>
		<line class="st4" x1="765.3" y1="416.8" x2="765.3" y2="420.5"/>
		<line class="st4" x1="773.4" y1="416.8" x2="773.4" y2="420.5"/>
		<line class="st4" x1="781.6" y1="416.8" x2="781.6" y2="420.5"/>
		<line class="st4" x1="765.3" y1="429.4" x2="765.3" y2="433"/>
		<line class="st4" x1="773.4" y1="429.4" x2="773.4" y2="433"/>
		<line class="st4" x1="781.6" y1="429.4" x2="781.6" y2="433"/>
		<line class="st4" x1="765.3" y1="441.9" x2="765.3" y2="445.5"/>
		<line class="st4" x1="773.4" y1="441.9" x2="773.4" y2="445.5"/>
		<line class="st4" x1="781.6" y1="441.9" x2="781.6" y2="445.5"/>
		<line class="st4" x1="765.3" y1="454.4" x2="765.3" y2="458"/>
		<line class="st4" x1="773.4" y1="454.4" x2="773.4" y2="458"/>
		<line class="st4" x1="781.6" y1="454.4" x2="781.6" y2="458"/>
		<line class="st4" x1="765.3" y1="466.9" x2="765.3" y2="470.5"/>
		<line class="st4" x1="773.4" y1="466.9" x2="773.4" y2="470.5"/>
		<line class="st4" x1="781.6" y1="466.9" x2="781.6" y2="470.5"/>
		<line class="st4" x1="765.3" y1="479.4" x2="765.3" y2="483"/>
		<line class="st4" x1="773.4" y1="479.4" x2="773.4" y2="483"/>
		<line class="st4" x1="781.6" y1="479.4" x2="781.6" y2="483"/>
		<line class="st4" x1="765.3" y1="491.9" x2="765.3" y2="495.6"/>
		<line class="st4" x1="773.4" y1="491.9" x2="773.4" y2="495.6"/>
		<line class="st4" x1="781.6" y1="491.9" x2="781.6" y2="495.6"/>
		<line class="st4" x1="765.3" y1="504.5" x2="765.3" y2="508.1"/>
		<line class="st4" x1="773.4" y1="504.5" x2="773.4" y2="508.1"/>
		<line class="st4" x1="781.6" y1="504.5" x2="781.6" y2="508.1"/>
		<line class="st4" x1="765.3" y1="517" x2="765.3" y2="520.6"/>
		<line class="st4" x1="773.4" y1="517" x2="773.4" y2="520.6"/>
		<line class="st4" x1="781.6" y1="517" x2="781.6" y2="520.6"/>
		<line class="st4" x1="765.3" y1="529.5" x2="765.3" y2="533.1"/>
		<line class="st4" x1="773.4" y1="529.5" x2="773.4" y2="533.1"/>
		<line class="st4" x1="781.6" y1="529.5" x2="781.6" y2="533.1"/>
		<line class="st4" x1="765.3" y1="542" x2="765.3" y2="545.6"/>
		<line class="st4" x1="773.4" y1="542" x2="773.4" y2="545.6"/>
		<line class="st4" x1="781.6" y1="542" x2="781.6" y2="545.6"/>
		<line class="st4" x1="765.3" y1="554.5" x2="765.3" y2="558.1"/>
		<line class="st4" x1="773.4" y1="554.5" x2="773.4" y2="558.1"/>
		<line class="st4" x1="781.6" y1="554.5" x2="781.6" y2="558.1"/>
		<line class="st4" x1="765.3" y1="567" x2="765.3" y2="570.7"/>
		<line class="st4" x1="773.4" y1="567" x2="773.4" y2="570.7"/>
		<line class="st4" x1="781.6" y1="567" x2="781.6" y2="570.7"/>
		<line class="st4" x1="765.3" y1="579.5" x2="765.3" y2="583.2"/>
		<line class="st4" x1="773.4" y1="579.5" x2="773.4" y2="583.2"/>
		<line class="st4" x1="781.6" y1="579.5" x2="781.6" y2="583.2"/>
		<line class="st4" x1="765.3" y1="592.1" x2="765.3" y2="595.7"/>
		<line class="st4" x1="773.4" y1="592.1" x2="773.4" y2="595.7"/>
		<line class="st4" x1="781.6" y1="592.1" x2="781.6" y2="595.7"/>
		<line class="st4" x1="765.3" y1="604.6" x2="765.3" y2="608.2"/>
		<line class="st4" x1="773.4" y1="604.6" x2="773.4" y2="608.2"/>
		<line class="st4" x1="781.6" y1="604.6" x2="781.6" y2="608.2"/>
		<line class="st4" x1="765.3" y1="617.1" x2="765.3" y2="620.7"/>
		<line class="st4" x1="773.4" y1="617.1" x2="773.4" y2="620.7"/>
		<line class="st4" x1="781.6" y1="617.1" x2="781.6" y2="620.7"/>
		<line class="st4" x1="765.3" y1="629.6" x2="765.3" y2="633.2"/>
		<line class="st4" x1="773.4" y1="629.6" x2="773.4" y2="633.2"/>
		<line class="st4" x1="781.6" y1="629.6" x2="781.6" y2="633.2"/>
		<line class="st4" x1="765.3" y1="642.1" x2="765.3" y2="645.7"/>
		<line class="st4" x1="773.4" y1="642.1" x2="773.4" y2="645.7"/>
		<line class="st4" x1="781.6" y1="642.1" x2="781.6" y2="645.7"/>
		<line class="st4" x1="765.3" y1="654.6" x2="765.3" y2="658.3"/>
		<line class="st4" x1="773.4" y1="654.6" x2="773.4" y2="658.3"/>
		<line class="st4" x1="781.6" y1="654.6" x2="781.6" y2="658.3"/>
		<g>
			<path class="st1" d="M793,356.2h-5c-0.2-5.7-0.4-9-0.4-9h-30.5h-30.5c0,0-0.1,3.3-0.4,9h-5c-1.1,26.7-4.1,106.9-4.1,155.5
				c0,59,5,152,5,152h5h30h30h5c0,0,5-93,5-152C797.1,463.1,794.1,383,793,356.2z"/>
			<path class="st1" d="M721.6,347.3c0,0-0.1,3.3-0.4,9"/>
			<path class="st1" d="M792.6,347.3c0,0,0.1,3.3,0.4,9"/>
		</g>
	</g>
	<g>
		<g>
			<path class="st3" d="M220.8,532.5c-0.8,1.2-3.8,4.7-3.8,5.8c0,1.1-0.2,4.6-1.2,5.9s4.8,3.8,4.8,5.4c0,2.8-4.8,7.1-6.8,7.9
				c-0.6-2.5-0.6-3.3-0.6-3.3s4.8-2.6,4-4.3c-1-2.2-5.8-3.4-5.8-3.4c-0.6,2.5-1.8,3.8-3,7.4c-1.2,3.6,3.6,6.3,3.6,6.3h-4
				c0,0-2.4-3.1-2.2-3.9c0.5-2.9,1.4-7.7,1.8-9.5c0.3-1.2,0.4-2.2,0.4-3.2h0c-6.5,4.1-11.1,1.8-12.4,2.8c0.6,3-2.7,4.8-2.5,7.8
				s4.5,6.1,4.5,6.1s-2.7,0-3.9,0s-4.5-7.4-4.5-7.4s1-1,1.1-4.5c-0.4-0.3-0.8-0.6-1.3-0.9l0,0c-0.7,3.4-3.2,5.1-4.8,6.4
				c-1.5,1.3,0,6.4,0,6.4h-2.8c0,0-1.1-7.1,1.6-9.2c0,0-4.2,1.6-5.5-0.7c1.4-0.9,1.8-4.4,1.7-9.4s4.8-6.1,6.4-5.2l0.1-0.2
				c2.6-3.2,8.6-3,8.6-3s1.8-0.7,1.8-6.2s2.7-5.9,2.7-5.9s-1.5-5,1.8-4s1.7,4,0.9,5.5c1,1,1.8,4.8,1.8,6.9c-0.1,2.1,2.9,2.4,2.9,2.4
				s2.4-1.8,7.3-4.4c4.9-2.6,7.2-1.4,10-0.8l0,0c1.4-1,3-1.6,3-1.6l-1.5,2.5c0,0,2.5,4.9,1.9,8.5c-0.4,3-2.6,2.2-3.4,0.7
				c-0.7-1.3,1.6-1.2-2.4-3.4L220.8,532.5z"/>
		</g>
		<path class="st3" d="M244.6,656.9v-14h-2.8v-19.3h-11.7V595h4c0,0,1-7.9,2-17c-7.5,0-6.7-17.8-15.5-17.8c-5.8,0-19,0-19,0
			s-13.2,0-19,0c-8.8,0-8,17.8-15.5,17.8c1,9.1,2,17,2,17h4v28.6h-11.7v19.3h-2.8v14l-17.5,2.7v4.2h60.5H262v-4.2L244.6,656.9z"/>
		<polyline class="st4" points="201.6,612.5 181.2,612.5 181.2,639.1 201.6,639.1 		"/>
		<polyline class="st4" points="173.1,595 173.1,582.8 180.4,582.8 180.4,591.9 201.6,591.9 		"/>
		<polyline class="st4" points="173.1,635.3 168.7,635.3 168.7,639.1 		"/>
		<polyline class="st4" points="168.7,639.1 164.4,639.1 164.4,642.9 		"/>
		<line class="st4" x1="158.6" y1="656.9" x2="201.6" y2="656.9"/>
		<line class="st4" x1="201.6" y1="642.9" x2="161.4" y2="642.9"/>
		<polyline class="st4" points="201.6,616.4 185.6,616.4 185.6,628.9 201.6,628.9 		"/>
		<line class="st4" x1="185.6" y1="620.7" x2="188.9" y2="616.4"/>
		<line class="st4" x1="185.6" y1="627" x2="193.9" y2="616.4"/>
		<line class="st4" x1="188.9" y1="628.9" x2="198.8" y2="616.4"/>
		<line class="st4" x1="193.9" y1="628.9" x2="201.6" y2="619.2"/>
		<line class="st4" x1="198.8" y1="628.9" x2="201.6" y2="625.5"/>
		<line class="st4" x1="194.6" y1="652.8" x2="199.7" y2="646.4"/>
		<line class="st4" x1="198.8" y1="653.8" x2="201.6" y2="650.3"/>
		<line class="st4" x1="180.4" y1="582.8" x2="201.6" y2="582.8"/>
		<line class="st4" x1="171.8" y1="574.6" x2="201.6" y2="574.6"/>
		<line class="st4" x1="175.5" y1="566.4" x2="201.6" y2="566.4"/>
		<line class="st4" x1="196.2" y1="582.8" x2="196.2" y2="574.6"/>
		<line class="st4" x1="196.2" y1="566.4" x2="196.2" y2="560.3"/>
		<line class="st4" x1="186.7" y1="574.6" x2="186.7" y2="566.4"/>
		<line class="st4" x1="178" y1="582.8" x2="178" y2="574.6"/>
		<polyline class="st4" points="173.1,623.6 173.1,635.3 181.2,635.3 		"/>
		<polyline class="st4" points="201.6,646.4 194.6,646.4 194.6,653.8 201.6,653.8 		"/>
		<polyline class="st4" points="201.6,612.5 221.9,612.5 221.9,639.1 201.6,639.1 		"/>
		<polyline class="st4" points="230.1,595 230.1,582.8 222.7,582.8 222.7,591.9 201.6,591.9 		"/>
		<polyline class="st4" points="230.1,635.3 234.4,635.3 234.4,639.1 		"/>
		<polyline class="st4" points="234.4,639.1 238.7,639.1 238.7,642.9 		"/>
		<line class="st4" x1="244.6" y1="656.9" x2="201.6" y2="656.9"/>
		<line class="st4" x1="201.6" y1="642.9" x2="241.7" y2="642.9"/>
		<polyline class="st4" points="201.6,616.4 217.6,616.4 217.6,628.9 201.6,628.9 		"/>
		<line class="st4" x1="217.6" y1="620.7" x2="214.2" y2="616.4"/>
		<line class="st4" x1="217.6" y1="627" x2="209.2" y2="616.4"/>
		<line class="st4" x1="214.2" y1="628.9" x2="204.3" y2="616.4"/>
		<line class="st4" x1="209.2" y1="628.9" x2="201.6" y2="619.2"/>
		<line class="st4" x1="204.3" y1="628.9" x2="201.6" y2="625.5"/>
		<line class="st4" x1="208.5" y1="652.8" x2="203.4" y2="646.4"/>
		<line class="st4" x1="204.3" y1="653.8" x2="201.6" y2="650.3"/>
		<line class="st4" x1="222.7" y1="582.8" x2="201.6" y2="582.8"/>
		<line class="st4" x1="231.3" y1="574.6" x2="201.6" y2="574.6"/>
		<line class="st4" x1="227.6" y1="566.4" x2="201.6" y2="566.4"/>
		<line class="st4" x1="206.9" y1="582.8" x2="206.9" y2="574.6"/>
		<line class="st4" x1="206.9" y1="566.4" x2="206.9" y2="560.3"/>
		<line class="st4" x1="216.4" y1="574.6" x2="216.4" y2="566.4"/>
		<line class="st4" x1="225.1" y1="582.8" x2="225.1" y2="574.6"/>
		<polyline class="st4" points="230.1,623.6 230.1,635.3 221.9,635.3 		"/>
		<path class="st1" d="M244.6,656.9v-14h-2.8v-19.3h-11.7V595h4c0,0,1-7.9,2-17c-7.5,0-6.7-17.8-15.5-17.8c-5.8,0-19,0-19,0
			s-13.2,0-19,0c-8.8,0-8,17.8-15.5,17.8c1,9.1,2,17,2,17h4v28.6h-11.7v19.3h-2.8v14l-17.5,2.7v4.2h60.5H262v-4.2L244.6,656.9z"/>
		<polyline class="st4" points="201.6,646.4 208.5,646.4 208.5,653.8 201.6,653.8 		"/>
		<path class="st4" d="M223.6,526.1c-2.8-0.6-5.1-1.8-10,0.8c-4.9,2.6-7.3,4.4-7.3,4.4s-3-0.3-2.9-2.4c0.1-2.1-0.8-5.9-1.8-6.9
			c0.8-1.5,2.3-4.5-0.9-5.5s-1.8,4-1.8,4s-2.7,0.3-2.7,5.9c0,5.6-1.8,6.2-1.8,6.2s-7.9-0.2-9.5,4.6s2.3,9.2,5.3,11.1
			c-0.1,3.5-1.1,4.5-1.1,4.5s3.2,7.4,4.5,7.4s3.9,0,3.9,0s-4.3-3.1-4.5-6.1s3.1-4.8,2.5-7.8s-1.3-3.8-1.3-3.8"/>
		<path class="st4" d="M194.5,532.7c-1.2,1.2-1.3,3.1-1.2,4.6"/>
		<path class="st4" d="M185.6,543.3c0.3,1.8,0.2,5.7-2.5,7.8c-2.7,2.1-1.6,9.2-1.6,9.2h2.8c0,0-1.5-5.1,0-6.4c1.5-1.3,4.1-3,4.8-6.4
			"/>
		<path class="st4" d="M185.7,535.8c-1.7-0.9-6.5,0.2-6.4,5.2s-0.2,8.5-1.7,9.4c1.3,2.2,5.5,0.7,5.5,0.7"/>
		<path class="st4" d="M220.6,532.7c-0.8,1.2-3.6,4.5-3.6,5.6s-0.2,4.6-1.2,5.9s4.8,3.8,4.8,5.4c0,2.8-4.8,7.1-6.8,7.9
			c-0.6-2.5-0.6-3.3-0.6-3.3s4.8-2.6,4-4.3c-1-2.2-5.8-3.4-5.8-3.4c-0.6,2.5-1.8,3.8-3,7.4c-1.2,3.6,3.6,6.3,3.6,6.3h-4
			c0,0-2.4-3.1-2.2-3.9c0.5-2.9,1.4-7.7,1.8-9.5c0.4-1.8,0.6-3.4,0-5.2"/>
		<path class="st4" d="M222.1,527.7c1-1.8,4.6-3.2,4.6-3.2l-1.5,2.5c0,0,2.5,4.9,1.9,8.5c-0.4,3-2.6,2.2-3.4,0.7
			c-0.7-1.3,1.6-1.2-2.4-3.4c-2.4-1.3-1.6-4.4-1.6-4.4"/>
		<path class="st4" d="M195.6,546.3c1.3-1,5.9,1.3,12.4-2.8"/>
	</g>
	<g>
		<g>
			<polygon class="st3" points="345.4,599.6 350.3,597 350.3,590 345.4,590 			"/>
			<polygon class="st3" points="371.5,590 371.5,597 376.4,599.6 376.4,590 			"/>
		</g>
		<path class="st3" d="M759.5,578.2v-6c0-2.7-1.7-5-4-6l0,0v-42.1l3.2-4.9h-5.5v-20.8l3.4-3.8h-3.2h0c-3.9-3.8-10-12.4-12.1-28.1
			h2.7c0,0,0-7.1-4.4-9.4c-3.2-4.5-2-13.6-5.1-13.6c-3,0-1.9,9.1-5.1,13.6c-4.4,2.2-4.4,9.4-4.4,9.4h2.7
			c-2.1,15.8-8.2,24.4-12.1,28.1h0h-3.2l3.4,3.8v20.8h-5.5l3.2,4.9v42.1l0,0c-2.3,1-4,3.3-4,6c-0.1,0-38.5,0-38.5,0v-7.2l-4.3-2.2
			l-4.3,2.2v3.2c-4.2-3-9.2-5.8-14.9-7.5l0,0l-2.4-9.1l-4.7-3.7c1.3-2.9,0.4-9-2.9-14.2c-3.3,5.2-4.2,11.3-2.9,14.2l-4.7,3.7
			l-2.4,9.1l0,0c-5.8,1.7-10.8,4.5-14.9,7.5v-3.2l-4.3-2.2l-4.3,2.2v7.2h-38.5c0-2.7-1.7-5-4-6l0,0v-42.1l3.2-4.9h-5.5v-20.8
			l3.4-3.8c0,0-3.2,0-3.2,0c-3.9-3.8-10-12.4-12.1-28.1h2.7c0,0,0-7.1-4.4-9.4c-3.2-4.5-2-13.6-5.1-13.6c-3,0-1.9,9.1-5.1,13.6
			c-4.4,2.2-4.4,9.4-4.4,9.4h2.7c-2.1,15.8-8.2,24.4-12.1,28.1h0h-3.2l3.4,3.8v20.8h-5.5l3.2,4.9v42.1l0,0c-2.3,1-4,3.3-4,6
			c0,0,0,6,0,6h-2.6l3.3,4.4v14.2H516l-30.8-13.6l0,0V572c0-2.6-2.1-4.7-4.7-4.7s-4.7,2.1-4.7,4.7v11.2l-35.5,16.4
			c0,0-3.2,0.6-4.2-3.3s-5-3.3-5-3.3l-2.2-9.7l-2.2,9.7c0,0-4-0.6-5,3.3c-1,3.9-4.2,3.3-4.2,3.3v0h-42.1c0,0-4.3,0.8-5.7-4.5
			c-1.3-5.3-6.8-4.5-6.8-4.5l-3-13.2l-3,13.2c0,0-5.5-0.8-6.8,4.5s-5.7,4.5-5.7,4.5h-42.1v0c0,0-3.2,0.6-4.2-3.3s-5-3.3-5-3.3
			l-2.2-9.7l-2.2,9.7c0,0-4-0.6-5,3.3c-1,3.9-4.2,3.3-4.2,3.3c0,2.8,0,64.2,0,64.2h160.7h318.5v-81.2l3.3-4.4
			C762.1,578.2,759.5,578.2,759.5,578.2z"/>
		<path class="st4" d="M628.9,636.2c0-5.3,4.3-9.6,9.6-9.6s9.6,4.3,9.6,9.6v27.6h-19.2L628.9,636.2L628.9,636.2z"/>
		<path class="st4" d="M575.9,636.2c0-5.3,4.3-9.6,9.6-9.6s9.6,4.3,9.6,9.6v27.6h-19.2L575.9,636.2L575.9,636.2z"/>
		<path class="st4" d="M636.2,611c0-1.3,1-2.3,2.3-2.3s2.3,1,2.3,2.3v6.6h-4.6L636.2,611L636.2,611z"/>
		<path class="st4" d="M615.9,598.2c0-0.8,0.7-1.5,1.5-1.5s1.5,0.7,1.5,1.5v8.2h-2.9L615.9,598.2L615.9,598.2z"/>
		<path class="st4" d="M615.9,625.5c0-0.8,0.7-1.5,1.5-1.5s1.5,0.7,1.5,1.5v8.2h-2.9L615.9,625.5L615.9,625.5z"/>
		<path class="st4" d="M615.9,639.2c0-0.8,0.7-1.5,1.5-1.5s1.5,0.7,1.5,1.5v8.2h-2.9L615.9,639.2L615.9,639.2z"/>
		<path class="st4" d="M634.7,588.8c0-2.1,1.7-3.8,3.8-3.8s3.8,1.7,3.8,3.8v10.8h-7.5L634.7,588.8L634.7,588.8z"/>
		<polyline class="st4" points="626,614.6 621.6,614.6 623.8,618.1 623.8,663.8 		"/>
		<polyline class="st4" points="578.1,614.6 573.7,614.6 575.9,618.1 575.9,663.8 		"/>
		<polyline class="st4" points="633.1,614.6 609,614.6 611.1,618.1 611.1,663.8 		"/>
		<polyline class="st4" points="626,584.1 621.6,584.1 623.8,587.6 623.8,614.6 		"/>
		<polyline class="st4" points="629.6,584.1 609,584.1 611.1,587.6 611.1,614.6 		"/>
		<line class="st4" x1="620.8" y1="584.1" x2="603.1" y2="584.1"/>
		<line class="st4" x1="633.1" y1="620.8" x2="638.5" y2="620.8"/>
		<path class="st4" d="M638.5,603.6c-2.5,0-3.2,2.5-3.2,2.5h-2.2v14.7H627"/>
		<line class="st4" x1="611.1" y1="651.4" x2="631" y2="651.4"/>
		<line class="st4" x1="629.6" y1="614.6" x2="629.6" y2="574.3"/>
		<path class="st4" d="M627,574.3h5.8c0,0,0.6-4.8,5.8-4.8"/>
		<circle class="st4" cx="638.5" cy="576.9" r="2.3"/>
		<path class="st4" d="M628.5,560.8c3.1-0.9,6.5-1.5,10-1.7"/>
		<line class="st4" x1="605" y1="575.7" x2="605" y2="572.3"/>
		<line class="st4" x1="635.5" y1="548" x2="638.5" y2="548"/>
		<polyline class="st4" points="541.5,578.2 569.1,578.2 565.8,582.6 541.5,582.6 		"/>
		<line class="st4" x1="565.8" y1="582.6" x2="565.8" y2="663.8"/>
		<rect x="537.8" y="589.3" class="st4" width="7.3" height="10.3"/>
		<rect x="582.3" y="591.3" class="st4" width="6.3" height="10.3"/>
		<path class="st4" d="M536.8,613.3c0-2.6,2.1-4.7,4.7-4.7c2.6,0,4.7,2.1,4.7,4.7v14.1h-9.3L536.8,613.3L536.8,613.3z"/>
		<path class="st4" d="M476.8,614.5c0-2.6,2.1-4.7,4.7-4.7s4.7,2.1,4.7,4.7v8.6h-9.3L476.8,614.5L476.8,614.5z"/>
		<path class="st4" d="M356.2,624.2c0-2.6,2.1-4.7,4.7-4.7s4.7,2.1,4.7,4.7v11.6h-9.3L356.2,624.2L356.2,624.2z"/>
		<path class="st4" d="M288.4,628c0-2,1.6-3.6,3.6-3.6s3.6,1.6,3.6,3.6v8.9h-7.2L288.4,628L288.4,628z"/>
		<path class="st4" d="M289.3,602.3c0-1.5,1.2-2.7,2.7-2.7c1.5,0,2.7,1.2,2.7,2.7v6.7h-5.4L289.3,602.3L289.3,602.3z"/>
		<path class="st4" d="M307.3,652.7c0-1.5,1.2-2.7,2.7-2.7c1.5,0,2.7,1.2,2.7,2.7v6.7h-5.4L307.3,652.7L307.3,652.7z"/>
		<path class="st4" d="M321.7,652.7c0-1.5,1.2-2.7,2.7-2.7c1.5,0,2.7,1.2,2.7,2.7v6.7h-5.4L321.7,652.7L321.7,652.7z"/>
		<path class="st4" d="M336,652.7c0-1.5,1.2-2.7,2.7-2.7c1.5,0,2.7,1.2,2.7,2.7v6.7H336L336,652.7L336,652.7z"/>
		<line class="st4" x1="565.8" y1="651.4" x2="541.5" y2="651.4"/>
		<line class="st4" x1="545.1" y1="592.3" x2="565.8" y2="592.3"/>
		<line class="st4" x1="541.5" y1="604" x2="565.8" y2="604"/>
		<line class="st4" x1="565.8" y1="615.7" x2="546.1" y2="615.7"/>
		<line class="st4" x1="546.1" y1="627.5" x2="565.8" y2="627.5"/>
		<line class="st4" x1="541.5" y1="639.2" x2="565.8" y2="639.2"/>
		<line class="st4" x1="560.3" y1="619.3" x2="560.3" y2="622.3"/>
		<line class="st4" x1="560.3" y1="586" x2="560.3" y2="589"/>
		<path class="st4" d="M541.5,560c3.1,0,4.7,3.9,4.7,3.9h9.2l-1.7,3.1v11.2"/>
		<line class="st4" x1="546.1" y1="567" x2="546.1" y2="578.2"/>
		<path class="st4" d="M541.5,519.3H558c0,0-0.6-7.6-9.1-10.5c0,2.9,0,6.1,0,6.1s-4.2,2.2-2.9-7.2l-4.6-5.1"/>
		<path class="st4" d="M541.5,530.3c4.6,0,8.3,3.7,8.3,8.3v25.4"/>
		<line class="st4" x1="555.3" y1="563.9" x2="555.3" y2="519.3"/>
		<line class="st4" x1="549.8" y1="538.5" x2="549.8" y2="519.3"/>
		<line class="st4" x1="558" y1="519.3" x2="560.3" y2="519.3"/>
		<circle class="st4" cx="554.7" cy="501" r="1.9"/>
		<path class="st4" d="M544.5,480.7c0,1.7-1.4,3-3,3c-1.7,0-3-1.4-3-3s1.4-3,3-3S544.5,479.1,544.5,480.7z"/>
		<circle class="st4" cx="541.5" cy="513.5" r="1.9"/>
		<path class="st4" d="M548.3,466.7c-2.7,0-6.8,0-6.8,0"/>
		<path class="st4" d="M546.5,457.3c-3,0-5.1,0-5.1,0"/>
		<line class="st4" x1="517.1" y1="582.6" x2="541.5" y2="582.6"/>
		<line class="st4" x1="541.5" y1="578.2" x2="516.4" y2="578.2"/>
		<line class="st4" x1="517.1" y1="663.8" x2="638.5" y2="663.8"/>
		<line class="st4" x1="517.1" y1="651.4" x2="541.5" y2="651.4"/>
		<line class="st4" x1="537.8" y1="592.3" x2="517.1" y2="592.3"/>
		<line class="st4" x1="541.5" y1="604" x2="517.1" y2="604"/>
		<line class="st4" x1="536.8" y1="615.7" x2="517.1" y2="615.7"/>
		<line class="st4" x1="536.8" y1="627.5" x2="517.1" y2="627.5"/>
		<line class="st4" x1="541.5" y1="639.2" x2="517.1" y2="639.2"/>
		<line class="st4" x1="522.6" y1="619.3" x2="522.6" y2="622.3"/>
		<line class="st4" x1="522.6" y1="586" x2="522.6" y2="589"/>
		<path class="st4" d="M541.5,560c-3.1,0-4.7,3.9-4.7,3.9h-9.2l1.7,3.1v11.2"/>
		<line class="st4" x1="536.8" y1="567" x2="536.8" y2="578.2"/>
		<path class="st4" d="M541.5,519.3h-16.6c0,0,0.6-7.6,9.1-10.5c0,2.9,0,6.1,0,6.1s4.2,2.2,2.9-7.2l4.6-5.1"/>
		<path class="st4" d="M541.5,530.3c-4.6,0-8.3,3.7-8.3,8.3v25.4"/>
		<line class="st4" x1="527.6" y1="563.9" x2="527.6" y2="519.3"/>
		<line class="st4" x1="533.2" y1="538.5" x2="533.2" y2="519.3"/>
		<line class="st4" x1="524.9" y1="519.3" x2="522.6" y2="519.3"/>
		<path class="st4" d="M529.3,572.3c0-3.6-2.9-6.5-6.5-6.5c-0.9,0-1.7,0.2-2.5,0.5"/>
		<path class="st4" d="M516.4,572.3"/>
		<line class="st4" x1="560.4" y1="494.8" x2="522.5" y2="494.8"/>
		<line class="st4" x1="556.5" y1="490.1" x2="526.4" y2="490.1"/>
		<line class="st4" x1="553.8" y1="485.4" x2="529.2" y2="485.4"/>
		<line class="st4" x1="538.4" y1="480.6" x2="531.2" y2="480.6"/>
		<line class="st4" x1="551.7" y1="480.6" x2="544.5" y2="480.6"/>
		<line class="st4" x1="550.2" y1="475.9" x2="532.7" y2="475.9"/>
		<line class="st4" x1="549" y1="471.2" x2="533.9" y2="471.2"/>
		<circle class="st4" cx="528.2" cy="501" r="1.9"/>
		<path class="st4" d="M534.6,466.7c2.7,0,6.8,0,6.8,0"/>
		<path class="st4" d="M536.4,457.3c3,0,5.1,0,5.1,0"/>
		<line class="st4" x1="569.1" y1="578.2" x2="602.7" y2="578.2"/>
		<line class="st4" x1="566.5" y1="572.3" x2="566.5" y2="578.2"/>
		<path class="st4" d="M553.6,572.3c0-3.6,2.9-6.5,6.5-6.5c0.9,0,1.7,0.2,2.5,0.5"/>
		<path class="st4" d="M566.5,572.3"/>
		<line class="st4" x1="598.7" y1="578.2" x2="602.7" y2="572.3"/>
		<line class="st4" x1="594" y1="578.2" x2="598" y2="572.3"/>
		<line class="st4" x1="589.3" y1="578.2" x2="593.3" y2="572.3"/>
		<line class="st4" x1="584.6" y1="578.2" x2="588.6" y2="572.3"/>
		<line class="st4" x1="579.9" y1="578.2" x2="584" y2="572.3"/>
		<line class="st4" x1="575.3" y1="578.2" x2="579.3" y2="572.3"/>
		<line class="st4" x1="570.6" y1="578.2" x2="574.6" y2="572.3"/>
		<line class="st4" x1="566.5" y1="577.3" x2="569.9" y2="572.3"/>
		<line class="st4" x1="564.2" y1="572.3" x2="556" y2="572.3"/>
		<line class="st4" x1="526.8" y1="572.3" x2="518.5" y2="572.3"/>
		<line class="st4" x1="602.3" y1="614.6" x2="568.7" y2="614.6"/>
		<polyline class="st4" points="592.9,614.6 597.2,614.6 595.1,618.1 595.1,663.8 		"/>
		<line class="st4" x1="585.5" y1="626.6" x2="585.5" y2="663.8"/>
		<path class="st4" d="M585.5,605.7h-6.3c0,0,0-10.5,0-13.7c0-3.3,1.4-5.4,1.4-5.4s3.2,1.6,4.9-2"/>
		<path class="st4" d="M585.5,605.7h6.3c0,0,0-10.5,0-13.7c0-3.3-1.4-5.4-1.4-5.4s-3.2,1.6-4.9-2"/>
		<line class="st4" x1="605.3" y1="636.4" x2="611.1" y2="636.4"/>
		<line class="st4" x1="605.3" y1="639.2" x2="611.1" y2="639.2"/>
		<path class="st4" d="M701,636.2c0-5.3-4.3-9.6-9.6-9.6c-5.3,0-9.6,4.3-9.6,9.6v27.6H701L701,636.2L701,636.2z"/>
		<path class="st4" d="M661,598.2c0-0.8-0.7-1.5-1.5-1.5s-1.5,0.7-1.5,1.5v8.2h2.9L661,598.2L661,598.2z"/>
		<path class="st4" d="M661,625.5c0-0.8-0.7-1.5-1.5-1.5s-1.5,0.7-1.5,1.5v8.2h2.9L661,625.5L661,625.5z"/>
		<path class="st4" d="M661,639.2c0-0.8-0.7-1.5-1.5-1.5s-1.5,0.7-1.5,1.5v8.2h2.9L661,639.2L661,639.2z"/>
		<polyline class="st4" points="651,614.6 655.3,614.6 653.1,618.1 653.1,663.8 		"/>
		<polyline class="st4" points="698.9,614.6 703.2,614.6 701,618.1 701,663.8 		"/>
		<polyline class="st4" points="643.8,614.6 668,614.6 665.8,618.1 665.8,663.8 		"/>
		<polyline class="st4" points="651,584.1 655.3,584.1 653.1,587.6 653.1,614.6 		"/>
		<polyline class="st4" points="647.3,584.1 668,584.1 665.8,587.6 665.8,614.6 		"/>
		<line class="st4" x1="656.1" y1="584.1" x2="673.8" y2="584.1"/>
		<line class="st4" x1="643.8" y1="620.8" x2="638.5" y2="620.8"/>
		<path class="st4" d="M638.5,603.6c2.5,0,3.2,2.5,3.2,2.5h2.2v14.7h6.2"/>
		<line class="st4" x1="665.8" y1="651.4" x2="646" y2="651.4"/>
		<line class="st4" x1="647.3" y1="614.6" x2="647.3" y2="574.3"/>
		<path class="st4" d="M650,574.3h-5.8c0,0-0.6-4.8-5.8-4.8"/>
		<path class="st4" d="M648.4,560.8c-3.1-0.9-6.5-1.5-10-1.7"/>
		<line class="st4" x1="671.9" y1="575.7" x2="671.9" y2="572.3"/>
		<line class="st4" x1="641.4" y1="548" x2="638.5" y2="548"/>
		<polyline class="st4" points="735.5,578.2 707.8,578.2 711.1,582.6 735.5,582.6 		"/>
		<line class="st4" x1="711.1" y1="582.6" x2="711.1" y2="663.8"/>
		<rect x="731.8" y="589.3" class="st4" width="7.3" height="10.3"/>
		<rect x="688.3" y="591.3" class="st4" width="6.3" height="10.3"/>
		<path class="st4" d="M740.1,613.3c0-2.6-2.1-4.7-4.7-4.7c-2.6,0-4.7,2.1-4.7,4.7v14.1h9.3L740.1,613.3L740.1,613.3z"/>
		<line class="st4" x1="711.1" y1="651.4" x2="735.5" y2="651.4"/>
		<line class="st4" x1="731.8" y1="592.3" x2="711.1" y2="592.3"/>
		<line class="st4" x1="735.5" y1="604" x2="711.1" y2="604"/>
		<line class="st4" x1="711.1" y1="615.7" x2="730.8" y2="615.7"/>
		<line class="st4" x1="730.8" y1="627.5" x2="711.1" y2="627.5"/>
		<line class="st4" x1="735.5" y1="639.2" x2="711.1" y2="639.2"/>
		<line class="st4" x1="716.6" y1="619.3" x2="716.6" y2="622.3"/>
		<line class="st4" x1="716.6" y1="586" x2="716.6" y2="589"/>
		<path class="st4" d="M735.5,560c-3.1,0-4.7,3.9-4.7,3.9h-9.2l1.7,3.1v11.2"/>
		<line class="st4" x1="730.8" y1="567" x2="730.8" y2="578.2"/>
		<path class="st4" d="M735.5,519.3h-16.6c0,0,0.6-7.6,9.1-10.5c0,2.9,0,6.1,0,6.1s4.2,2.2,2.9-7.2l4.6-5.1"/>
		<path class="st4" d="M735.5,530.3c-4.6,0-8.3,3.7-8.3,8.3v25.4"/>
		<line class="st4" x1="721.6" y1="563.9" x2="721.6" y2="519.3"/>
		<line class="st4" x1="727.2" y1="538.5" x2="727.2" y2="519.3"/>
		<line class="st4" x1="718.9" y1="519.3" x2="716.6" y2="519.3"/>
		<line class="st4" x1="735.5" y1="494.8" x2="716.5" y2="494.8"/>
		<circle class="st4" cx="722.2" cy="501" r="1.9"/>
		<path class="st4" d="M732.4,480.7c0,1.7,1.4,3,3,3c1.7,0,3-1.4,3-3s-1.4-3-3-3S732.4,479.1,732.4,480.7z"/>
		<circle class="st4" cx="735.5" cy="513.5" r="1.9"/>
		<path class="st4" d="M728.6,466.7c2.7,0,6.8,0,6.8,0"/>
		<path class="st4" d="M730.4,457.3c3,0,5.1,0,5.1,0"/>
		<line class="st4" x1="759.8" y1="582.6" x2="735.5" y2="582.6"/>
		<line class="st4" x1="735.5" y1="578.2" x2="760.5" y2="578.2"/>
		<line class="st4" x1="759.8" y1="663.8" x2="638.5" y2="663.8"/>
		<line class="st4" x1="759.8" y1="651.4" x2="735.5" y2="651.4"/>
		<line class="st4" x1="739.1" y1="592.3" x2="759.8" y2="592.3"/>
		<line class="st4" x1="735.5" y1="604" x2="759.8" y2="604"/>
		<line class="st4" x1="740.1" y1="615.7" x2="759.8" y2="615.7"/>
		<line class="st4" x1="740.1" y1="627.5" x2="759.8" y2="627.5"/>
		<line class="st4" x1="735.5" y1="639.2" x2="759.8" y2="639.2"/>
		<line class="st4" x1="754.3" y1="619.3" x2="754.3" y2="622.3"/>
		<line class="st4" x1="754.3" y1="586" x2="754.3" y2="589"/>
		<path class="st4" d="M735.5,560c3.1,0,4.7,3.9,4.7,3.9h9.2l-1.7,3.1v11.2"/>
		<line class="st4" x1="740.1" y1="567" x2="740.1" y2="578.2"/>
		<path class="st4" d="M735.5,519.3H752c0,0-0.6-7.6-9.1-10.5c0,2.9,0,6.1,0,6.1s-4.2,2.2-2.9-7.2l-4.6-5.1"/>
		<path class="st4" d="M735.5,530.3c4.6,0,8.3,3.7,8.3,8.3v25.4"/>
		<line class="st4" x1="749.3" y1="563.9" x2="749.3" y2="519.3"/>
		<line class="st4" x1="743.8" y1="538.5" x2="743.8" y2="519.3"/>
		<line class="st4" x1="752" y1="519.3" x2="754.3" y2="519.3"/>
		<path class="st4" d="M747.6,572.3c0-3.6,2.9-6.5,6.5-6.5c0.9,0,1.7,0.2,2.5,0.5"/>
		<path class="st4" d="M760.5,572.3"/>
		<line class="st4" x1="735.5" y1="494.8" x2="754.4" y2="494.8"/>
		<circle class="st4" cx="748.7" cy="501" r="1.9"/>
		<path class="st4" d="M742.3,466.7c-2.7,0-6.8,0-6.8,0"/>
		<path class="st4" d="M740.5,457.3c-3,0-5.1,0-5.1,0"/>
		<line class="st4" x1="707.8" y1="578.2" x2="674.2" y2="578.2"/>
		<line class="st4" x1="710.4" y1="572.3" x2="710.4" y2="578.2"/>
		<path class="st4" d="M723.3,572.3c0-3.6-2.9-6.5-6.5-6.5c-0.9,0-1.7,0.2-2.5,0.5"/>
		<path class="st4" d="M710.4,572.3"/>
		<line class="st4" x1="678.2" y1="578.2" x2="674.2" y2="572.3"/>
		<line class="st4" x1="682.9" y1="578.2" x2="678.9" y2="572.3"/>
		<line class="st4" x1="687.6" y1="578.2" x2="683.6" y2="572.3"/>
		<line class="st4" x1="692.3" y1="578.2" x2="688.3" y2="572.3"/>
		<line class="st4" x1="697" y1="578.2" x2="693" y2="572.3"/>
		<line class="st4" x1="701.7" y1="578.2" x2="697.6" y2="572.3"/>
		<line class="st4" x1="706.3" y1="578.2" x2="702.3" y2="572.3"/>
		<line class="st4" x1="710.4" y1="577.3" x2="707" y2="572.3"/>
		<line class="st4" x1="712.7" y1="572.3" x2="721" y2="572.3"/>
		<line class="st4" x1="750.2" y1="572.3" x2="758.4" y2="572.3"/>
		<line class="st4" x1="674.6" y1="614.6" x2="708.2" y2="614.6"/>
		<polyline class="st4" points="684,614.6 679.7,614.6 681.9,618.1 681.9,663.8 		"/>
		<line class="st4" x1="691.4" y1="626.6" x2="691.4" y2="663.8"/>
		<path class="st4" d="M691.4,605.7h6.3c0,0,0-10.5,0-13.7c0-3.3-1.4-5.4-1.4-5.4s-3.2,1.6-4.9-2"/>
		<path class="st4" d="M691.4,605.7h-6.3c0,0,0-10.5,0-13.7c0-3.3,1.4-5.4,1.4-5.4s3.2,1.6,4.9-2"/>
		<line class="st4" x1="671.6" y1="636.4" x2="665.8" y2="636.4"/>
		<line class="st4" x1="671.6" y1="639.2" x2="665.8" y2="639.2"/>
		<line class="st4" x1="750.5" y1="490.2" x2="720.4" y2="490.2"/>
		<line class="st4" x1="747.8" y1="485.5" x2="723.2" y2="485.5"/>
		<line class="st4" x1="732.4" y1="480.7" x2="725.2" y2="480.7"/>
		<line class="st4" x1="745.8" y1="480.7" x2="738.5" y2="480.7"/>
		<line class="st4" x1="744.2" y1="476" x2="726.8" y2="476"/>
		<line class="st4" x1="743" y1="471.3" x2="727.9" y2="471.3"/>
		<path class="st4" d="M446.3,597.2l1.5,2.3h21.8c0,0,0.8-10.6,11.8-10.6"/>
		<line class="st4" x1="481.5" y1="581.1" x2="476.8" y2="583.2"/>
		<polyline class="st4" points="465.6,599.6 467.6,602.9 467.6,627.5 		"/>
		<polyline class="st4" points="465.6,627.5 467.6,630.8 467.6,655.3 		"/>
		<polyline class="st4" points="460.6,599.6 462.6,602.9 462.6,627.5 		"/>
		<polyline class="st4" points="447.8,599.6 449.8,602.9 449.8,655.3 		"/>
		<polyline class="st4" points="460.6,627.5 462.6,630.8 462.6,655.3 		"/>
		<polyline class="st4" points="481.5,623.1 473.6,623.1 476,627.5 481.5,627.5 		"/>
		<line class="st4" x1="476" y1="627.5" x2="460.6" y2="627.5"/>
		<path class="st4" d="M473.1,642.6c0-4.6,3.7-8.3,8.3-8.3c4.6,0,8.3,3.7,8.3,8.3v21.2h-16.7C473.1,663.8,473.1,643.9,473.1,642.6z"
			/>
		<line class="st4" x1="473.1" y1="655.3" x2="441.3" y2="655.3"/>
		<path class="st4" d="M484.8,599.6c0,2.5-1.5,4.5-3.3,4.5s-3.3-2-3.3-4.5s1.5-4.5,3.3-4.5C483.3,595.1,484.8,597.1,484.8,599.6z"/>
		<line class="st4" x1="481.5" y1="572.3" x2="475.1" y2="572.3"/>
		<path class="st4" d="M517,596.8l-1.8,2.8h-21.8c0,0-0.8-10.6-11.8-10.6"/>
		<line class="st4" x1="481.5" y1="581.1" x2="486.1" y2="583.2"/>
		<polyline class="st4" points="497.3,599.6 495.3,602.9 495.3,627.5 		"/>
		<polyline class="st4" points="497.3,627.5 495.3,630.8 495.3,655.3 		"/>
		<polyline class="st4" points="502.3,599.6 500.3,602.9 500.3,627.5 		"/>
		<polyline class="st4" points="515.1,599.6 513.1,602.9 513.1,655.3 		"/>
		<polyline class="st4" points="502.3,627.5 500.3,630.8 500.3,655.3 		"/>
		<polyline class="st4" points="481.5,623.1 489.3,623.1 487,627.5 481.5,627.5 		"/>
		<line class="st4" x1="487" y1="627.5" x2="502.3" y2="627.5"/>
		<line class="st4" x1="489.8" y1="655.3" x2="517" y2="655.3"/>
		<line class="st4" x1="481.5" y1="572.3" x2="487.8" y2="572.3"/>
		<path class="st4" d="M363.9,605.4c0,2.4-1.3,4.3-3,4.3s-3-1.9-3-4.3s1.3-4.3,3-4.3C362.6,601.1,363.9,603,363.9,605.4z"/>
		<polyline class="st4" points="345.4,599.6 345.4,613.5 348.9,613.5 348.9,663.8 360.9,663.8 		"/>
		<line class="st4" x1="352" y1="613.5" x2="352" y2="635.9"/>
		<path class="st4" d="M360.9,645.7h-3c0,0-0.6,2.2-2.6,2.5c0,2.4,0,15.6,0,15.6"/>
		<line class="st4" x1="356.2" y1="641.2" x2="360.9" y2="641.2"/>
		<polyline class="st4" points="376.4,599.6 376.4,613.5 372.9,613.5 372.9,663.8 360.9,663.8 		"/>
		<path class="st4" d="M283.1,598.9"/>
		<line class="st4" x1="369.9" y1="613.5" x2="369.9" y2="635.9"/>
		<path class="st4" d="M360.9,645.7h3c0,0,0.6,2.2,2.6,2.5c0,2.4,0,15.6,0,15.6"/>
		<path class="st4" d="M291.8,645.7h-3c0,0-0.6,2.2-2.6,2.5c0,2.4,0,15.6,0,15.6"/>
		<path class="st4" d="M291.8,645.7h3c0,0,0.6,2.2,2.6,2.5c0,2.4,0,15.6,0,15.6"/>
		<line class="st4" x1="365.6" y1="641.2" x2="360.9" y2="641.2"/>
		<path class="st4" d="M303.3,599.6"/>
		<polyline class="st4" points="350.3,597 350.3,590 345.4,590 345.4,599.6 		"/>
		<line class="st4" x1="418.5" y1="599.6" x2="418.5" y2="638.4"/>
		<polyline class="st4" points="371.5,597 371.5,590 376.4,590 376.4,599.6 		"/>
		<line class="st4" x1="280.6" y1="663.8" x2="348.9" y2="663.8"/>
		<line class="st4" x1="287.3" y1="613.5" x2="292" y2="613.5"/>
		<line class="st4" x1="287.3" y1="616.4" x2="292" y2="616.4"/>
		<path class="st4" d="M291.8,645.7h3c0,0,0.6,2.2,2.6,2.5c0,2.4,0,15.6,0,15.6"/>
		<path class="st4" d="M303.3,638.4c0,2.8,0,25.3,0,25.3"/>
		<line class="st4" x1="280.6" y1="599.6" x2="280.6" y2="638.4"/>
		<line class="st4" x1="303.3" y1="638.4" x2="303.3" y2="599.6"/>
		<line class="st4" x1="296.3" y1="613.5" x2="291.7" y2="613.5"/>
		<line class="st4" x1="296.3" y1="616.4" x2="291.7" y2="616.4"/>
		<path class="st4" d="M288.4,632.8c-1.4,0-3.2,5.6-7.8,5.6"/>
		<path class="st4" d="M295.5,632.8c1.4,0,3.2,5.6,7.8,5.6"/>
		<path class="st4" d="M288.4,620.6c-1.4,0-3.2,5.6-7.8,5.6"/>
		<path class="st4" d="M295.5,620.6c1.4,0,3.2,5.6,7.8,5.6"/>
		<line class="st4" x1="345.4" y1="594.8" x2="298.5" y2="594.8"/>
		<line class="st4" x1="340.3" y1="599.6" x2="340.3" y2="594.8"/>
		<line class="st4" x1="333.6" y1="599.6" x2="333.6" y2="594.8"/>
		<line class="st4" x1="326.8" y1="599.6" x2="326.8" y2="594.8"/>
		<line class="st4" x1="320.1" y1="599.6" x2="320.1" y2="594.8"/>
		<line class="st4" x1="313.3" y1="599.6" x2="313.3" y2="594.8"/>
		<line class="st4" x1="306.6" y1="599.6" x2="306.6" y2="594.8"/>
		<rect x="308.1" y="603.2" class="st4" width="3.9" height="5.9"/>
		<rect x="322.4" y="603.2" class="st4" width="3.9" height="5.9"/>
		<rect x="336.8" y="603.2" class="st4" width="3.9" height="5.9"/>
		<line class="st4" x1="303.3" y1="619.6" x2="348.9" y2="619.6"/>
		<line class="st4" x1="303.3" y1="641.2" x2="348.9" y2="641.2"/>
		<line class="st4" x1="308.8" y1="641.2" x2="308.8" y2="616.4"/>
		<line class="st4" x1="314.6" y1="641.2" x2="314.6" y2="616.4"/>
		<line class="st4" x1="320.4" y1="641.2" x2="320.4" y2="616.4"/>
		<line class="st4" x1="326.1" y1="641.2" x2="326.1" y2="616.4"/>
		<line class="st4" x1="331.9" y1="641.2" x2="331.9" y2="616.4"/>
		<line class="st4" x1="337.7" y1="641.2" x2="337.7" y2="616.4"/>
		<line class="st4" x1="343.5" y1="641.2" x2="343.5" y2="616.4"/>
		<path class="st4" d="M433.5,628c0-2-1.6-3.6-3.6-3.6s-3.6,1.6-3.6,3.6v8.9h7.2L433.5,628L433.5,628z"/>
		<path class="st4" d="M432.6,602.3c0-1.5-1.2-2.7-2.7-2.7c-1.5,0-2.7,1.2-2.7,2.7v6.7h5.4L432.6,602.3L432.6,602.3z"/>
		<path class="st4" d="M414.5,652.7c0-1.5-1.2-2.7-2.7-2.7c-1.5,0-2.7,1.2-2.7,2.7v6.7h5.4L414.5,652.7L414.5,652.7z"/>
		<path class="st4" d="M400.2,652.7c0-1.5-1.2-2.7-2.7-2.7c-1.5,0-2.7,1.2-2.7,2.7v6.7h5.4L400.2,652.7L400.2,652.7z"/>
		<path class="st4" d="M385.8,652.7c0-1.5-1.2-2.7-2.7-2.7c-1.5,0-2.7,1.2-2.7,2.7v6.7h5.4L385.8,652.7L385.8,652.7z"/>
		<path class="st4" d="M438.7,598.9"/>
		<path class="st4" d="M430,645.7h3c0,0,0.6,2.2,2.6,2.5c0,2.4,0,15.6,0,15.6"/>
		<path class="st4" d="M430,645.7h-3c0,0-0.6,2.2-2.6,2.5c0,2.4,0,15.6,0,15.6"/>
		<path class="st4" d="M441.3,638.4c0,2.8,0,25.3,0,25.3"/>
		<line class="st4" x1="434.5" y1="613.5" x2="429.9" y2="613.5"/>
		<line class="st4" x1="434.5" y1="616.4" x2="429.9" y2="616.4"/>
		<path class="st4" d="M430,645.7h-3c0,0-0.6,2.2-2.6,2.5c0,2.4,0,15.6,0,15.6"/>
		<path class="st4" d="M418.5,638.4c0,2.8,0,25.3,0,25.3"/>
		<line class="st4" x1="425.5" y1="613.5" x2="430.2" y2="613.5"/>
		<line class="st4" x1="425.5" y1="616.4" x2="430.2" y2="616.4"/>
		<path class="st4" d="M433.5,632.8c1.4,0,3.2,5.6,7.8,5.6"/>
		<path class="st4" d="M426.3,632.8c-1.4,0-3.2,5.6-7.8,5.6"/>
		<path class="st4" d="M433.5,620.6c1.4,0,3.2,5.6,7.8,5.6"/>
		<path class="st4" d="M426.3,620.6c-1.4,0-3.2,5.6-7.8,5.6"/>
		<line class="st4" x1="376.5" y1="594.8" x2="423.3" y2="594.8"/>
		<line class="st4" x1="381.5" y1="599.6" x2="381.5" y2="594.8"/>
		<line class="st4" x1="388.3" y1="599.6" x2="388.3" y2="594.8"/>
		<line class="st4" x1="395" y1="599.6" x2="395" y2="594.8"/>
		<line class="st4" x1="401.8" y1="599.6" x2="401.8" y2="594.8"/>
		<line class="st4" x1="408.5" y1="599.6" x2="408.5" y2="594.8"/>
		<line class="st4" x1="415.3" y1="599.6" x2="415.3" y2="594.8"/>
		<rect x="409.9" y="603.2" class="st4" width="3.9" height="5.9"/>
		<rect x="395.6" y="603.2" class="st4" width="3.9" height="5.9"/>
		<rect x="381.2" y="603.2" class="st4" width="3.9" height="5.9"/>
		<line class="st4" x1="418.5" y1="619.6" x2="373" y2="619.6"/>
		<line class="st4" x1="418.5" y1="641.2" x2="373" y2="641.2"/>
		<line class="st4" x1="413" y1="641.2" x2="413" y2="616.4"/>
		<line class="st4" x1="407.3" y1="641.2" x2="407.3" y2="616.4"/>
		<line class="st4" x1="401.5" y1="641.2" x2="401.5" y2="616.4"/>
		<line class="st4" x1="395.7" y1="641.2" x2="395.7" y2="616.4"/>
		<line class="st4" x1="390" y1="641.2" x2="390" y2="616.4"/>
		<line class="st4" x1="384.2" y1="641.2" x2="384.2" y2="616.4"/>
		<line class="st4" x1="378.4" y1="641.2" x2="378.4" y2="616.4"/>
		<g>
			<path class="st1" d="M603.1,584.1l-2.5-3.3c0,0,4.7-6.6,12.9-12.5"/>
			<path class="st1" d="M673.8,584.1l2.5-3.3c0,0-4.7-6.6-12.9-12.5"/>
			<line class="st1" x1="517.1" y1="596.8" x2="517.1" y2="663.8"/>
			<polyline class="st1" points="603.1,584.1 605.3,587.6 605.3,663.8 			"/>
			<polyline class="st1" points="673.8,584.1 671.6,587.6 671.6,663.8 			"/>
			<line class="st1" x1="441.3" y1="599.6" x2="441.3" y2="663.8"/>
			<path class="st1" d="M760.5,578.2v-6c0-2.7-1.7-5-4-6l0,0v-42.1l3.2-4.9h-5.5v-20.8l3.4-3.8h-3.2h0c-3.9-3.8-10-12.4-12.1-28.1
				h2.7c0,0,0-7.1-4.4-9.4c-3.2-4.5-2-13.6-5.1-13.6c-3,0-1.9,9.1-5.1,13.6c-4.4,2.2-4.4,9.4-4.4,9.4h2.7
				c-2.1,15.8-8.2,24.4-12.1,28.1h0h-3.2l3.4,3.8v20.8h-5.5l3.2,4.9v42.1l0,0c-2.3,1-4,3.3-4,6c-0.1,0-38.5,0-38.5,0v-7.2l-4.3-2.2
				l-4.3,2.2v3.2c-4.2-3-9.2-5.8-14.9-7.5l0,0l-2.4-9.1l-4.7-3.7c1.3-2.9,0.4-9-2.9-14.2c-3.3,5.2-4.2,11.3-2.9,14.2l-4.7,3.7
				l-2.4,9.1l0,0c-5.8,1.7-10.8,4.5-14.9,7.5v-3.2l-4.3-2.2l-4.3,2.2v7.2h-38.5c0-2.7-1.7-5-4-6l0,0v-42.1l3.2-4.9h-5.5v-20.8
				l3.4-3.8c0,0-3.2,0-3.2,0c-3.9-3.8-10-12.4-12.1-28.1h2.7c0,0,0-7.1-4.4-9.4c-3.2-4.5-2-13.6-5.1-13.6c-3,0-1.9,9.1-5.1,13.6
				c-4.4,2.2-4.4,9.4-4.4,9.4h2.7c-2.1,15.8-8.2,24.4-12.1,28.1h0h-3.2l3.4,3.8v20.8h-5.5l3.2,4.9v42.1l0,0c-2.3,1-4,3.3-4,6
				c0,0,0,6,0,6h-2.6l3.3,4.4v14.2H517l-30.8-13.6l0,0V572c0-2.6-2.1-4.7-4.7-4.7c-2.6,0-4.7,2.1-4.7,4.7v11.2l-35.5,16.4
				c0,0-3.2,0.6-4.2-3.3s-5-3.3-5-3.3l-2.2-9.7l-2.2,9.7c0,0-4-0.6-5,3.3c-1,3.9-4.2,3.3-4.2,3.3v0h-42.1c0,0-4.3,0.8-5.7-4.5
				c-1.3-5.3-6.8-4.5-6.8-4.5l-3-13.2l-3,13.2c0,0-5.5-0.8-6.8,4.5s-5.7,4.5-5.7,4.5h-42.1v0c0,0-3.2,0.6-4.2-3.3s-5-3.3-5-3.3
				l-2.2-9.7l-2.2,9.7c0,0-4-0.6-5,3.3c-1,3.9-4.2,3.3-4.2,3.3c0,2.8,0,64.2,0,64.2h160.7h318.5v-81.2l3.3-4.4
				C763.1,578.2,760.5,578.2,760.5,578.2z"/>
		</g>
	</g>
	<g>
		<polygon class="st3" points="1413.9,310.3 1413.7,321.7 1413.7,321.7 1403.1,321.7 1392.4,321.7 1392.4,321.7 1392.2,310.3 
			1335.1,310.3 1341.4,663.8 1403.1,663.8 1464.7,663.8 1471.1,310.3 		"/>
		<line class="st4" x1="1392.4" y1="321.7" x2="1398.5" y2="663.8"/>
		<line class="st4" x1="1392.2" y1="663.8" x2="1385.8" y2="310.3"/>
		<line class="st4" x1="1385.8" y1="663.8" x2="1379.5" y2="310.3"/>
		<line class="st4" x1="1379.5" y1="663.8" x2="1373.1" y2="310.3"/>
		<line class="st4" x1="1373.1" y1="663.8" x2="1366.8" y2="310.3"/>
		<line class="st4" x1="1366.8" y1="663.8" x2="1360.4" y2="310.3"/>
		<line class="st4" x1="1360.4" y1="663.8" x2="1354.1" y2="310.3"/>
		<line class="st4" x1="1354.1" y1="663.8" x2="1347.8" y2="310.3"/>
		<line class="st4" x1="1347.8" y1="663.8" x2="1341.4" y2="310.3"/>
		<line class="st4" x1="1392.8" y1="335.8" x2="1403.1" y2="335.8"/>
		<line class="st4" x1="1392.9" y1="349.9" x2="1403.1" y2="349.9"/>
		<line class="st4" x1="1393.2" y1="364" x2="1403.1" y2="364"/>
		<line class="st4" x1="1393.4" y1="378" x2="1403.1" y2="378"/>
		<line class="st4" x1="1393.7" y1="392.1" x2="1403.1" y2="392.1"/>
		<line class="st4" x1="1393.9" y1="406.2" x2="1403.1" y2="406.2"/>
		<line class="st4" x1="1394.2" y1="420.3" x2="1403.1" y2="420.3"/>
		<line class="st4" x1="1394.4" y1="434.4" x2="1403.1" y2="434.4"/>
		<line class="st4" x1="1394.7" y1="448.5" x2="1403.1" y2="448.5"/>
		<line class="st4" x1="1394.9" y1="462.6" x2="1403.1" y2="462.6"/>
		<line class="st4" x1="1395.2" y1="476.7" x2="1403.1" y2="476.7"/>
		<line class="st4" x1="1395.4" y1="490.8" x2="1403.1" y2="490.8"/>
		<line class="st4" x1="1395.7" y1="504.9" x2="1403.1" y2="504.9"/>
		<line class="st4" x1="1395.9" y1="519" x2="1403.1" y2="519"/>
		<line class="st4" x1="1396.2" y1="533.1" x2="1403.1" y2="533.1"/>
		<line class="st4" x1="1396.4" y1="547.2" x2="1403.1" y2="547.2"/>
		<line class="st4" x1="1396.7" y1="561.2" x2="1403.1" y2="561.2"/>
		<line class="st4" x1="1397.2" y1="575.3" x2="1403.1" y2="575.3"/>
		<line class="st4" x1="1397.2" y1="589.4" x2="1403.1" y2="589.4"/>
		<line class="st4" x1="1397.4" y1="603.5" x2="1403.1" y2="603.5"/>
		<line class="st4" x1="1397.7" y1="617.6" x2="1403.1" y2="617.6"/>
		<line class="st4" x1="1397.9" y1="631.7" x2="1403.1" y2="631.7"/>
		<line class="st4" x1="1398.2" y1="645.8" x2="1403.1" y2="645.8"/>
		<line class="st4" x1="1413.7" y1="321.7" x2="1407.6" y2="663.8"/>
		<line class="st4" x1="1413.9" y1="663.8" x2="1420.3" y2="310.3"/>
		<line class="st4" x1="1420.3" y1="663.8" x2="1426.6" y2="310.3"/>
		<line class="st4" x1="1426.6" y1="663.8" x2="1433" y2="310.3"/>
		<line class="st4" x1="1433" y1="663.8" x2="1439.3" y2="310.3"/>
		<line class="st4" x1="1439.3" y1="663.8" x2="1445.7" y2="310.3"/>
		<line class="st4" x1="1445.7" y1="663.8" x2="1452" y2="310.3"/>
		<line class="st4" x1="1452" y1="663.8" x2="1458.4" y2="310.3"/>
		<line class="st4" x1="1458.4" y1="663.8" x2="1464.7" y2="310.3"/>
		<line class="st4" x1="1413.3" y1="335.8" x2="1403.1" y2="335.8"/>
		<line class="st4" x1="1413.2" y1="349.9" x2="1403.1" y2="349.9"/>
		<line class="st4" x1="1413" y1="364" x2="1403.1" y2="364"/>
		<line class="st4" x1="1412.7" y1="378" x2="1403.1" y2="378"/>
		<line class="st4" x1="1412.5" y1="392.1" x2="1403.1" y2="392.1"/>
		<line class="st4" x1="1412.2" y1="406.2" x2="1403.1" y2="406.2"/>
		<line class="st4" x1="1412" y1="420.3" x2="1403.1" y2="420.3"/>
		<line class="st4" x1="1411.7" y1="434.4" x2="1403.1" y2="434.4"/>
		<line class="st4" x1="1411.5" y1="448.5" x2="1403.1" y2="448.5"/>
		<line class="st4" x1="1411.2" y1="462.6" x2="1403.1" y2="462.6"/>
		<line class="st4" x1="1410.9" y1="476.7" x2="1403.1" y2="476.7"/>
		<line class="st4" x1="1410.7" y1="490.8" x2="1403.1" y2="490.8"/>
		<line class="st4" x1="1410.4" y1="504.9" x2="1403.1" y2="504.9"/>
		<line class="st4" x1="1410.2" y1="519" x2="1403.1" y2="519"/>
		<line class="st4" x1="1409.9" y1="533.1" x2="1403.1" y2="533.1"/>
		<line class="st4" x1="1409.7" y1="547.2" x2="1403.1" y2="547.2"/>
		<line class="st4" x1="1409.4" y1="561.2" x2="1403.1" y2="561.2"/>
		<line class="st4" x1="1408.9" y1="575.3" x2="1403.1" y2="575.3"/>
		<line class="st4" x1="1408.9" y1="589.4" x2="1403.1" y2="589.4"/>
		<line class="st4" x1="1408.7" y1="603.5" x2="1403.1" y2="603.5"/>
		<line class="st4" x1="1408.4" y1="617.6" x2="1403.1" y2="617.6"/>
		<line class="st4" x1="1408.2" y1="631.7" x2="1403.1" y2="631.7"/>
		<line class="st4" x1="1407.9" y1="645.8" x2="1403.1" y2="645.8"/>
		<polygon class="st1" points="1413.9,310.3 1413.7,321.7 1413.7,321.7 1403.1,321.7 1392.4,321.7 1392.4,321.7 1392.2,310.3 
			1335.1,310.3 1341.4,663.8 1403.1,663.8 1464.7,663.8 1471.1,310.3 		"/>
	</g>
	<g>
		<path class="st3" d="M935.9,528.7c15.2,9,20.7,23.6,17.4,33c-0.9,2.6-4,1.9-3.8-1c0.8-8.6-3.9-20-16.4-27.4
			c-12.5-7.4-24.7-6.1-31.9-1.3c-2.4,1.6-4.5-0.8-2.7-2.8C905.2,521.7,920.7,519.7,935.9,528.7z"/>
		<polyline class="st4" points="917.6,528.1 909.1,573.8 901.2,532 		"/>
		<path class="st1" d="M935.9,528.7c15.2,9,20.7,23.6,17.4,33c-0.9,2.6-4,1.9-3.8-1c0.8-8.6-3.9-20-16.4-27.4
			c-12.5-7.4-24.7-6.1-31.9-1.3c-2.4,1.6-4.5-0.8-2.7-2.8C905.2,521.7,920.7,519.7,935.9,528.7z"/>
		<polyline class="st4" points="945.1,544.4 909.1,573.8 949.5,560.7 		"/>
	</g>
	<g>
		<path class="st3" d="M859.7,441.7c18.1-7.9,35.1-3.5,41.5,5.7c1.8,2.5-0.9,4.9-3.4,2.8c-7.3-6.3-20.8-9.5-35.7-3
			c-14.9,6.5-21.7,18.5-22,28.2c-0.1,3.2-3.7,3.6-4.3,0.6C833.3,465.2,841.5,449.7,859.7,441.7z"/>
		<polyline class="st4" points="847.3,458 883.3,495.7 840.1,475.5 		"/>
		<path class="st1" d="M859.7,441.7c18.1-7.9,35.1-3.5,41.5,5.7c1.8,2.5-0.9,4.9-3.4,2.8c-7.3-6.3-20.8-9.5-35.7-3
			c-14.9,6.5-21.7,18.5-22,28.2c-0.1,3.2-3.7,3.6-4.3,0.6C833.3,465.2,841.5,449.7,859.7,441.7z"/>
		<polyline class="st4" points="880.1,443.7 883.3,495.7 897.8,450.2 		"/>
	</g>
	<g>
		<g>
			<path class="st3" d="M1001.4,519.8c0,6.4-4.2,10-4.2,10l2.6,5.9h3.1l2.6-5.9C1005.6,529.8,1001.4,526.2,1001.4,519.8z"/>
			<path class="st3" d="M1055.8,519.8c0,6.4-4.2,10-4.2,10l2.6,5.9h3.1l2.6-5.9C1059.9,529.8,1055.8,526.2,1055.8,519.8z"/>
			<path class="st3" d="M1161.9,510.9c0,6.4-4.2,10-4.2,10l2.6,5.9h3.1l2.6-5.9C1166.1,520.9,1161.9,517.3,1161.9,510.9z"/>
			<rect x="1191.9" y="455.5" class="st3" width="36.8" height="17.8"/>
			<path class="st3" d="M1382.4,519.8c0,6.4-4.2,10-4.2,10l2.6,5.9h3.1l2.6-5.9C1386.6,529.8,1382.4,526.2,1382.4,519.8z"/>
			<path class="st3" d="M1328.1,519.8c0,6.4-4.2,10-4.2,10l2.6,5.9h3.1l2.6-5.9C1332.3,529.8,1328.1,526.2,1328.1,519.8z"/>
			<path class="st3" d="M1222,510.9c0,6.4-4.2,10-4.2,10l2.6,5.9h3.1l2.6-5.9C1226.2,520.9,1222,517.3,1222,510.9z"/>
		</g>
		<path class="st3" d="M1064.6,539.3h92.6v-12.4h8.9v4.2l0.2,0.1c4.6-6.8,12.3-8.3,12.3-8.3s-3.4-2.8-5.9-6.4c5.4,0,7-4.8,7-4.8
			s0,0,2.1,0c0.8-4.9,3.9-8.1,10.2-8.1c6.3,0,9.4,3.2,10.2,8.1c2.1,0,2.1,0,2.1,0s1.6,4.8,7,4.8c-2.5,3.6-5.9,6.4-5.9,6.4
			s7.6,1.5,12.3,8.3l0.2-0.1v-4.2h8.9v12.4h92.6v-3.5c0,0,8.8,0,13.5,0c2.9-8.8,11.9-6,11.9-6v-4.4l-2.6-3.5h3.1c0-5.5,4.5-10,10-10
			s10,4.5,10,10h3.1l-2.6,3.5v4.4c0,0,9-2.8,11.9,6c4.8,0,13.5,0,13.5,0v18.5h4.2l-2.5,5.3v62.5l2.5,3.2l-1,4v14l1.8,2.2v8l1.5,2.5
			v7.8h-42.5h-42.5h-120.8h-120.8h-42.5h-42.5v-7.8l1.5-2.5v-8l1.8-2.2v-14l-1-4l2.5-3.2v-62.5l-2.5-5.3h4.2v-18.5c0,0,8.8,0,13.5,0
			c2.9-8.8,11.9-6,11.9-6v-4.4l-2.6-3.5h3.1c0-5.5,4.5-10,10-10c5.5,0,10,4.5,10,10h3.1l-2.6,3.5v4.4c0,0,9-2.8,11.9,6
			c4.8,0,13.5,0,13.5,0L1064.6,539.3L1064.6,539.3z"/>
		<path class="st4" d="M1028.6,560.8c-7.7,0-13.9,6.2-13.9,13.9h-2.9"/>
		<path class="st4" d="M1022.7,574.8c0-3.3,2.6-5.9,5.9-5.9s5.9,2.7,5.9,5.9v23.2h-11.8L1022.7,574.8L1022.7,574.8z"/>
		<path class="st4" d="M1176.1,567.3c2.7-6.1,8.8-10.4,15.8-10.4"/>
		<path class="st4" d="M1181.7,574.3c0-5.7,4.6-10.3,10.3-10.3s10.3,4.6,10.3,10.3v25.2h-20.6L1181.7,574.3L1181.7,574.3z"/>
		<path class="st4" d="M1180.7,623.7c0-6.2,5-11.2,11.2-11.2c6.2,0,11.2,5,11.2,11.2v29.8h-22.5L1180.7,623.7L1180.7,623.7z"/>
		<path class="st4" d="M1025.3,523.1c0-1.8,1.5-3.2,3.3-3.2s3.2,1.5,3.2,3.2v6.8h-6.5V523.1z"/>
		<path class="st4" d="M1022.7,617c0-3.3,2.6-5.9,5.9-5.9s5.9,2.7,5.9,5.9v28.4h-11.8L1022.7,617L1022.7,617z"/>
		<polyline class="st4" points="1022.7,597.9 1014.6,597.9 1011.8,601.1 1028.6,601.1 		"/>
		<polyline class="st4" points="1014.7,574.8 1018.1,574.8 1018.1,597.9 		"/>
		<polyline class="st4" points="1011.8,611.7 1018.1,611.7 1018.1,645.4 		"/>
		<polyline class="st4" points="1001.4,554.3 1008.6,554.3 1006.1,559.6 1006.1,622.1 1008.6,625.3 1007.6,629.3 1007.6,643.3 
			1009.4,645.4 1009.4,653.4 1010.9,655.9 1010.9,663.8 		"/>
		<polyline class="st4" points="1007,554.3 1014.2,554.3 1011.7,559.6 1011.7,622.1 1014.2,625.3 1013.2,629.3 1013.2,643.3 
			1015,645.4 1015,653.4 1016.5,655.9 1016.5,663.8 		"/>
		<polyline class="st4" points="1001.4,554.3 994.3,554.3 996.8,559.6 996.8,622.1 994.3,625.3 995.3,629.3 995.3,643.3 
			993.4,645.4 993.4,653.4 991.9,655.9 991.9,663.8 		"/>
		<line class="st4" x1="1015" y1="645.4" x2="1028.6" y2="645.4"/>
		<line class="st4" x1="993.4" y1="645.4" x2="1009.4" y2="645.4"/>
		<path class="st4" d="M1028.6,648.8c-3,0-5.9,2.5-5.9,2.5v12.5"/>
		<polyline class="st4" points="1026.5,611.5 1024.8,605.9 1028.6,605.9 		"/>
		<path class="st4" d="M1028.6,546.8c-4.3,0-7,2.1-8.4,7.5c-1.5,0-6,0-6,0"/>
		<rect x="997.3" y="535.8" class="st4" width="8.9" height="18.5"/>
		<line class="st4" x1="1025.3" y1="529.8" x2="1028.6" y2="534.2"/>
		<path class="st4" d="M1003,535.8l2.6-5.9c0,0-4.2-3.6-4.2-10c0,6.4-4.2,10-4.2,10l2.6,5.9"/>
		<path class="st4" d="M1028.6,560.8c7.7,0,13.9,6.2,13.9,13.9h2.9"/>
		<path class="st4" d="M1106.9,603.3c-3.2,0-5.8,2.6-5.8,5.8h-1.2"/>
		<path class="st4" d="M1106.9,603.3c3.2,0,5.8,2.6,5.8,5.8h1.2"/>
		<polyline class="st4" points="1034.5,597.9 1042.6,597.9 1045.4,601.1 1028.6,601.1 		"/>
		<polyline class="st4" points="1042.5,574.8 1039.1,574.8 1039.1,597.9 		"/>
		<polyline class="st4" points="1045.4,611.7 1039.1,611.7 1039.1,645.4 		"/>
		<polyline class="st4" points="1055.8,554.3 1048.6,554.3 1051.1,559.6 1051.1,622.1 1048.6,625.3 1049.6,629.3 1049.6,643.3 
			1047.8,645.4 1047.8,653.4 1046.3,655.9 1046.3,663.8 		"/>
		<polyline class="st4" points="1050.2,554.3 1043,554.3 1045.5,559.6 1045.5,622.1 1043,625.3 1044,629.3 1044,643.3 1042.2,645.4 
			1042.2,653.4 1040.7,655.9 1040.7,663.8 		"/>
		<polyline class="st4" points="1055.8,554.3 1062.9,554.3 1060.4,559.6 1060.4,622.1 1062.9,625.3 1061.9,629.3 1061.9,643.3 
			1063.8,645.4 1063.8,653.4 1065.3,655.9 1065.3,663.8 		"/>
		<polyline class="st4" points="1161.6,554.3 1154.4,554.3 1156.9,559.6 1156.9,622.1 1154.4,625.3 1155.4,629.3 1155.4,643.3 
			1153.6,645.4 1153.6,653.4 1152.1,655.9 1152.1,663.8 		"/>
		<polyline class="st4" points="1161.6,554.3 1168.8,554.3 1166.3,559.6 1166.3,622.1 1168.8,625.3 1167.8,629.3 1167.8,643.3 
			1169.6,645.4 1169.6,653.4 1171.1,655.9 1171.1,663.8 		"/>
		<line class="st4" x1="1042.2" y1="645.4" x2="1028.6" y2="645.4"/>
		<line class="st4" x1="1063.8" y1="645.4" x2="1047.8" y2="645.4"/>
		<path class="st4" d="M1028.6,648.8c3,0,5.9,2.5,5.9,2.5v12.5"/>
		<path class="st4" d="M1106.9,648.8c-3,0-5.9,2.5-5.9,2.5v12.5"/>
		<path class="st4" d="M1106.9,648.8c3,0,5.9,2.5,5.9,2.5v12.5"/>
		<path class="st4" d="M1086,648.8c-3,0-5.9,2.5-5.9,2.5v12.5"/>
		<path class="st4" d="M1086,648.8c3,0,5.9,2.5,5.9,2.5v12.5"/>
		<path class="st4" d="M1127.7,648.8c-3,0-5.9,2.5-5.9,2.5v12.5"/>
		<path class="st4" d="M1127.7,648.8c3,0,5.9,2.5,5.9,2.5v12.5"/>
		<polyline class="st4" points="1030.7,611.5 1032.4,605.9 1028.6,605.9 		"/>
		<path class="st4" d="M1028.6,546.8c4.3,0,7,2.1,8.4,7.5c1.5,0,6,0,6,0"/>
		<rect x="1051" y="535.8" class="st4" width="8.9" height="18.5"/>
		<line class="st4" x1="1031.9" y1="529.8" x2="1028.6" y2="534.2"/>
		<path class="st4" d="M1054.2,535.8l-2.6-5.9c0,0,4.2-3.6,4.2-10c0,6.4,4.2,10,4.2,10l-2.6,5.9"/>
		<line class="st4" x1="1157.2" y1="545.8" x2="1157.2" y2="539.3"/>
		<path class="st4" d="M1160.3,526.8l-2.6-5.9c0,0,4.2-3.6,4.2-10c0,6.4,4.2,10,4.2,10l-2.6,5.9"/>
		<line class="st4" x1="1156.9" y1="559.6" x2="1147.4" y2="559.6"/>
		<line class="st4" x1="1156.9" y1="565.8" x2="1147.4" y2="565.8"/>
		<line class="st4" x1="1156.9" y1="572.1" x2="1147.4" y2="572.1"/>
		<line class="st4" x1="1156.9" y1="578.3" x2="1147.4" y2="578.3"/>
		<line class="st4" x1="1156.9" y1="584.6" x2="1147.4" y2="584.6"/>
		<line class="st4" x1="1156.9" y1="590.8" x2="1147.4" y2="590.8"/>
		<line class="st4" x1="1156.9" y1="597.1" x2="1147.4" y2="597.1"/>
		<line class="st4" x1="1156.9" y1="603.3" x2="1147.4" y2="603.3"/>
		<line class="st4" x1="1156.9" y1="609.6" x2="1147.4" y2="609.6"/>
		<line class="st4" x1="1156.9" y1="615.8" x2="1147.4" y2="615.8"/>
		<line class="st4" x1="1156.9" y1="622.1" x2="1147.4" y2="622.1"/>
		<polyline class="st4" points="1191.9,599.6 1173.4,599.6 1171.1,603.3 1191.9,603.3 		"/>
		<polyline class="st4" points="1173.4,599.6 1173.4,570.8 1170.3,567.4 1176.1,567.4 		"/>
		<path class="st4" d="M1176.1,615.9c2.7-6.1,8.8-10.4,15.8-10.4"/>
		<polyline class="st4" points="1173.4,653.4 1173.4,619.3 1170.3,615.9 1176.1,615.9 		"/>
		<line class="st4" x1="1181.7" y1="574.3" x2="1202.2" y2="574.3"/>
		<line class="st4" x1="1181.7" y1="578.3" x2="1202.2" y2="578.3"/>
		<path class="st4" d="M1182.8,559.6c-2.8-6.7-0.3-15.8,9.1-15.8"/>
		<line class="st4" x1="1186.1" y1="545.3" x2="1191.9" y2="538.6"/>
		<line class="st4" x1="1177.4" y1="574.3" x2="1177.4" y2="599.5"/>
		<line class="st4" x1="1169.6" y1="653.4" x2="1191.9" y2="653.4"/>
		<line class="st4" x1="1186.8" y1="606.2" x2="1189.2" y2="612.8"/>
		<line class="st4" x1="1191.9" y1="612.4" x2="1191.9" y2="653.4"/>
		<line class="st4" x1="1153.6" y1="645.4" x2="1169.6" y2="645.4"/>
		<line class="st4" x1="1171.1" y1="656.1" x2="1191.9" y2="656.1"/>
		<line class="st4" x1="1171.1" y1="659" x2="1191.9" y2="659"/>
		<line class="st4" x1="1144.1" y1="645.4" x2="1069.6" y2="645.4"/>
		<line class="st4" x1="1022.7" y1="574.8" x2="1034.5" y2="574.8"/>
		<line class="st4" x1="1022.7" y1="578.3" x2="1034.5" y2="578.3"/>
		<path class="st4" d="M1080.1,580.2c0-3.3,2.7-5.9,5.9-5.9s5.9,2.7,5.9,5.9v16.2h-11.8L1080.1,580.2L1080.1,580.2z"/>
		<line class="st4" x1="1080.1" y1="580.2" x2="1091.9" y2="580.2"/>
		<line class="st4" x1="1080.1" y1="583.8" x2="1091.9" y2="583.8"/>
		<path class="st4" d="M1100.9,580.2c0-3.3,2.7-5.9,5.9-5.9s5.9,2.7,5.9,5.9v16.2H1101L1100.9,580.2L1100.9,580.2z"/>
		<line class="st4" x1="1100.9" y1="580.2" x2="1112.8" y2="580.2"/>
		<line class="st4" x1="1100.9" y1="583.8" x2="1112.8" y2="583.8"/>
		<path class="st4" d="M1100.9,618.3c0-3.3,2.7-5.9,5.9-5.9s5.9,2.7,5.9,5.9v27.1H1101L1100.9,618.3L1100.9,618.3z"/>
		<line class="st4" x1="1100.9" y1="618.3" x2="1112.8" y2="618.3"/>
		<line class="st4" x1="1100.9" y1="621.9" x2="1112.8" y2="621.9"/>
		<path class="st4" d="M1121.8,580.2c0-3.3,2.7-5.9,5.9-5.9s5.9,2.7,5.9,5.9v16.2h-11.8L1121.8,580.2L1121.8,580.2z"/>
		<line class="st4" x1="1121.8" y1="580.2" x2="1133.6" y2="580.2"/>
		<line class="st4" x1="1121.8" y1="583.8" x2="1133.6" y2="583.8"/>
		<rect x="1080.1" y="621.9" class="st4" width="11.8" height="23.5"/>
		<rect x="1121.8" y="621.9" class="st4" width="11.8" height="23.5"/>
		<polyline class="st4" points="1080.1,615.9 1086,611.1 1091.9,615.9 		"/>
		<polyline class="st4" points="1121.8,615.9 1127.7,611.1 1133.6,615.9 		"/>
		<line class="st4" x1="1068.8" y1="554.3" x2="1144.9" y2="554.3"/>
		<line class="st4" x1="1071.1" y1="565.8" x2="1142.6" y2="565.8"/>
		<line class="st4" x1="1071.1" y1="559.6" x2="1142.6" y2="559.6"/>
		<line class="st4" x1="1241.1" y1="565.8" x2="1312.6" y2="565.8"/>
		<line class="st4" x1="1241.1" y1="559.6" x2="1312.6" y2="559.6"/>
		<line class="st4" x1="1149.5" y1="547.6" x2="1064.6" y2="547.6"/>
		<line class="st4" x1="1072.8" y1="542" x2="1072.8" y2="544.5"/>
		<line class="st4" x1="1077" y1="542" x2="1077" y2="544.5"/>
		<line class="st4" x1="1081.3" y1="542" x2="1081.3" y2="544.5"/>
		<line class="st4" x1="1093.7" y1="542" x2="1093.7" y2="544.5"/>
		<line class="st4" x1="1097.9" y1="542" x2="1097.9" y2="544.5"/>
		<line class="st4" x1="1102.2" y1="542" x2="1102.2" y2="544.5"/>
		<line class="st4" x1="1114.5" y1="542" x2="1114.5" y2="544.5"/>
		<line class="st4" x1="1118.8" y1="542" x2="1118.8" y2="544.5"/>
		<line class="st4" x1="1123" y1="542" x2="1123" y2="544.5"/>
		<line class="st4" x1="1135.4" y1="542" x2="1135.4" y2="544.5"/>
		<line class="st4" x1="1139.7" y1="542" x2="1139.7" y2="544.5"/>
		<line class="st4" x1="1143.9" y1="542" x2="1143.9" y2="544.5"/>
		<path class="st4" d="M1168.8,554.3c0-6.1,0-8.3,0-11s1.4-8.7,9.2-7.4c0,2.8,0,2.8,0,2.8s9.3-7.8,13.9-3"/>
		<path class="st4" d="M1191.9,522.4c0,0-1.1-5.9-7.9-6.6c0,3.1,1,8.6,7.9,12.8"/>
		<line class="st4" x1="1191.9" y1="503.6" x2="1191.9" y2="455.5"/>
		<rect x="1191.9" y="455.5" class="st4" width="36.8" height="17.8"/>
		<path class="st4" d="M1355.3,560.8c7.7,0,13.9,6.2,13.9,13.9h2.9"/>
		<path class="st4" d="M1361.2,574.8c0-3.3-2.7-5.9-5.9-5.9s-5.9,2.7-5.9,5.9v23.2h11.8L1361.2,574.8L1361.2,574.8z"/>
		<path class="st4" d="M1207.8,567.3c-2.7-6.1-8.8-10.4-15.8-10.4"/>
		<path class="st4" d="M1358.5,523.1c0-1.8-1.5-3.2-3.2-3.2s-3.2,1.5-3.2,3.2v6.8h6.5L1358.5,523.1L1358.5,523.1z"/>
		<path class="st4" d="M1361.2,617c0-3.3-2.7-5.9-5.9-5.9s-5.9,2.7-5.9,5.9v28.4h11.8L1361.2,617L1361.2,617z"/>
		<polyline class="st4" points="1361.2,597.9 1369.3,597.9 1372.1,601.1 1355.3,601.1 		"/>
		<polyline class="st4" points="1369.2,574.8 1365.8,574.8 1365.8,597.9 		"/>
		<polyline class="st4" points="1372.1,611.7 1365.8,611.7 1365.8,645.4 		"/>
		<polyline class="st4" points="1382.4,554.3 1375.3,554.3 1377.8,559.6 1377.8,622.1 1375.3,625.3 1376.3,629.3 1376.3,643.3 
			1374.4,645.4 1374.4,653.4 1372.9,655.9 1372.9,663.8 		"/>
		<polyline class="st4" points="1376.8,554.3 1369.7,554.3 1372.2,559.6 1372.2,622.1 1369.7,625.3 1370.7,629.3 1370.7,643.3 
			1368.8,645.4 1368.8,653.4 1367.3,655.9 1367.3,663.8 		"/>
		<polyline class="st4" points="1382.4,554.3 1389.6,554.3 1387.1,559.6 1387.1,622.1 1389.6,625.3 1388.6,629.3 1388.6,643.3 
			1390.4,645.4 1390.4,653.4 1391.9,655.9 1391.9,663.8 		"/>
		<line class="st4" x1="1368.8" y1="645.4" x2="1355.3" y2="645.4"/>
		<line class="st4" x1="1390.4" y1="645.4" x2="1374.4" y2="645.4"/>
		<path class="st4" d="M1355.3,648.8c3,0,5.9,2.5,5.9,2.5v12.5"/>
		<polyline class="st4" points="1357.4,611.5 1359.1,605.9 1355.3,605.9 		"/>
		<path class="st4" d="M1355.3,546.8c4.3,0,7,2.1,8.4,7.5c1.5,0,6,0,6,0"/>
		<rect x="1377.7" y="535.8" class="st4" width="8.9" height="18.5"/>
		<line class="st4" x1="1358.5" y1="529.8" x2="1355.3" y2="534.2"/>
		<path class="st4" d="M1380.9,535.8l-2.6-5.9c0,0,4.2-3.6,4.2-10c0,6.4,4.2,10,4.2,10l-2.6,5.9"/>
		<path class="st4" d="M1355.3,560.8c-7.7,0-13.9,6.2-13.9,13.9h-2.9"/>
		<path class="st4" d="M1277,603.3c3.2,0,5.8,2.6,5.8,5.8h1.2"/>
		<path class="st4" d="M1277,603.3c-3.2,0-5.8,2.6-5.8,5.8h-1.2"/>
		<polyline class="st4" points="1349.3,597.9 1341.3,597.9 1338.4,601.1 1355.3,601.1 		"/>
		<polyline class="st4" points="1341.3,574.8 1344.8,574.8 1344.8,597.9 		"/>
		<polyline class="st4" points="1338.4,611.7 1344.8,611.7 1344.8,645.4 		"/>
		<polyline class="st4" points="1328.1,554.3 1335.3,554.3 1332.8,559.6 1332.8,622.1 1335.3,625.3 1334.3,629.3 1334.3,643.3 
			1336.1,645.4 1336.1,653.4 1337.6,655.9 1337.6,663.8 		"/>
		<polyline class="st4" points="1333.7,554.3 1340.8,554.3 1338.3,559.6 1338.3,622.1 1340.8,625.3 1339.8,629.3 1339.8,643.3 
			1341.7,645.4 1341.7,653.4 1343.2,655.9 1343.2,663.8 		"/>
		<polyline class="st4" points="1328.1,554.3 1320.9,554.3 1323.4,559.6 1323.4,622.1 1320.9,625.3 1321.9,629.3 1321.9,643.3 
			1320.1,645.4 1320.1,653.4 1318.6,655.9 1318.6,663.8 		"/>
		<polyline class="st4" points="1222.3,554.3 1229.4,554.3 1226.9,559.6 1226.9,622.1 1229.4,625.3 1228.4,629.3 1228.4,643.3 
			1230.3,645.4 1230.3,653.4 1231.8,655.9 1231.8,663.8 		"/>
		<polyline class="st4" points="1222.3,554.3 1215.1,554.3 1217.6,559.6 1217.6,622.1 1215.1,625.3 1216.1,629.3 1216.1,643.3 
			1214.3,645.4 1214.3,653.4 1212.8,655.9 1212.8,663.8 		"/>
		<line class="st4" x1="1341.7" y1="645.4" x2="1355.3" y2="645.4"/>
		<line class="st4" x1="1320.1" y1="645.4" x2="1336.1" y2="645.4"/>
		<path class="st4" d="M1355.3,648.8c-3,0-5.9,2.5-5.9,2.5v12.5"/>
		<path class="st4" d="M1277,648.8c3,0,5.9,2.5,5.9,2.5v12.5"/>
		<path class="st4" d="M1277,648.8c-3,0-5.9,2.5-5.9,2.5v12.5"/>
		<path class="st4" d="M1297.8,648.8c3,0,5.9,2.5,5.9,2.5v12.5"/>
		<path class="st4" d="M1297.8,648.8c-3,0-5.9,2.5-5.9,2.5v12.5"/>
		<path class="st4" d="M1256.2,648.8c3,0,5.9,2.5,5.9,2.5v12.5"/>
		<path class="st4" d="M1256.2,648.8c-3,0-5.9,2.5-5.9,2.5v12.5"/>
		<polyline class="st4" points="1353.2,611.5 1351.4,605.9 1355.3,605.9 		"/>
		<path class="st4" d="M1355.3,546.8c-4.3,0-7,2.1-8.4,7.5c-1.5,0-6,0-6,0"/>
		<rect x="1323.9" y="535.8" class="st4" width="8.9" height="18.5"/>
		<line class="st4" x1="1352" y1="529.8" x2="1355.3" y2="534.2"/>
		<path class="st4" d="M1329.6,535.8l2.6-5.9c0,0-4.2-3.6-4.2-10c0,6.4-4.2,10-4.2,10l2.6,5.9"/>
		<line class="st4" x1="1226.7" y1="545.8" x2="1226.7" y2="539.3"/>
		<path class="st4" d="M1223.5,526.8l2.6-5.9c0,0-4.2-3.6-4.2-10c0,6.4-4.2,10-4.2,10l2.6,5.9"/>
		<line class="st4" x1="1226.9" y1="559.6" x2="1236.4" y2="559.6"/>
		<line class="st4" x1="1226.9" y1="565.8" x2="1236.4" y2="565.8"/>
		<line class="st4" x1="1226.9" y1="572.1" x2="1236.4" y2="572.1"/>
		<line class="st4" x1="1226.9" y1="578.3" x2="1236.4" y2="578.3"/>
		<line class="st4" x1="1226.9" y1="584.6" x2="1236.4" y2="584.6"/>
		<line class="st4" x1="1226.9" y1="590.8" x2="1236.4" y2="590.8"/>
		<line class="st4" x1="1226.9" y1="597.1" x2="1236.4" y2="597.1"/>
		<line class="st4" x1="1226.9" y1="603.3" x2="1236.4" y2="603.3"/>
		<line class="st4" x1="1226.9" y1="609.6" x2="1236.4" y2="609.6"/>
		<line class="st4" x1="1226.9" y1="615.8" x2="1236.4" y2="615.8"/>
		<line class="st4" x1="1226.9" y1="622.1" x2="1236.4" y2="622.1"/>
		<polyline class="st4" points="1191.9,599.6 1210.4,599.6 1212.8,603.3 1191.9,603.3 		"/>
		<polyline class="st4" points="1210.4,599.6 1210.4,570.8 1213.6,567.4 1207.8,567.4 		"/>
		<path class="st4" d="M1207.8,615.9c-2.7-6.1-8.8-10.4-15.8-10.4"/>
		<polyline class="st4" points="1210.4,653.4 1210.4,619.3 1213.6,615.9 1207.8,615.9 		"/>
		<path class="st4" d="M1201.1,559.6c2.8-6.7,0.3-15.8-9.1-15.8"/>
		<line class="st4" x1="1197.8" y1="545.3" x2="1191.9" y2="538.6"/>
		<line class="st4" x1="1206.5" y1="574.3" x2="1206.5" y2="599.5"/>
		<line class="st4" x1="1214.3" y1="653.4" x2="1191.9" y2="653.4"/>
		<line class="st4" x1="1197" y1="606.2" x2="1194.7" y2="612.8"/>
		<line class="st4" x1="1191.9" y1="612.4" x2="1191.9" y2="653.4"/>
		<line class="st4" x1="1230.3" y1="645.4" x2="1214.3" y2="645.4"/>
		<line class="st4" x1="1212.8" y1="656.1" x2="1191.9" y2="656.1"/>
		<line class="st4" x1="1212.8" y1="659" x2="1191.9" y2="659"/>
		<line class="st4" x1="1239.8" y1="645.4" x2="1314.3" y2="645.4"/>
		<line class="st4" x1="1361.2" y1="574.8" x2="1349.3" y2="574.8"/>
		<line class="st4" x1="1361.2" y1="578.3" x2="1349.3" y2="578.3"/>
		<path class="st4" d="M1303.8,580.2c0-3.3-2.7-5.9-5.9-5.9s-5.9,2.7-5.9,5.9v16.2h11.8L1303.8,580.2L1303.8,580.2z"/>
		<line class="st4" x1="1303.8" y1="580.2" x2="1291.9" y2="580.2"/>
		<line class="st4" x1="1303.8" y1="583.8" x2="1291.9" y2="583.8"/>
		<path class="st4" d="M1282.9,580.2c0-3.3-2.7-5.9-5.9-5.9s-5.9,2.7-5.9,5.9v16.2h11.8L1282.9,580.2L1282.9,580.2z"/>
		<line class="st4" x1="1282.9" y1="580.2" x2="1271.1" y2="580.2"/>
		<line class="st4" x1="1282.9" y1="583.8" x2="1271.1" y2="583.8"/>
		<path class="st4" d="M1282.9,618.3c0-3.3-2.7-5.9-5.9-5.9s-5.9,2.7-5.9,5.9v27.1h11.8L1282.9,618.3L1282.9,618.3z"/>
		<line class="st4" x1="1282.9" y1="618.3" x2="1271.1" y2="618.3"/>
		<line class="st4" x1="1282.9" y1="621.9" x2="1271.1" y2="621.9"/>
		<path class="st4" d="M1262.1,580.2c0-3.3-2.7-5.9-5.9-5.9s-5.9,2.7-5.9,5.9v16.2h11.8L1262.1,580.2L1262.1,580.2z"/>
		<line class="st4" x1="1262.1" y1="580.2" x2="1250.3" y2="580.2"/>
		<line class="st4" x1="1262.1" y1="583.8" x2="1250.3" y2="583.8"/>
		<rect x="1291.9" y="621.9" class="st4" width="11.8" height="23.5"/>
		<rect x="1250.3" y="621.9" class="st4" width="11.8" height="23.5"/>
		<polyline class="st4" points="1303.8,615.9 1297.8,611.1 1291.9,615.9 		"/>
		<polyline class="st4" points="1262.1,615.9 1256.2,611.1 1250.3,615.9 		"/>
		<line class="st4" x1="1315.1" y1="554.3" x2="1238.9" y2="554.3"/>
		<line class="st4" x1="1234.3" y1="547.6" x2="1319.3" y2="547.6"/>
		<line class="st4" x1="1311.1" y1="542" x2="1311.1" y2="544.5"/>
		<line class="st4" x1="1306.8" y1="542" x2="1306.8" y2="544.5"/>
		<line class="st4" x1="1302.6" y1="542" x2="1302.6" y2="544.5"/>
		<line class="st4" x1="1290.2" y1="542" x2="1290.2" y2="544.5"/>
		<line class="st4" x1="1286" y1="542" x2="1286" y2="544.5"/>
		<line class="st4" x1="1281.7" y1="542" x2="1281.7" y2="544.5"/>
		<line class="st4" x1="1269.3" y1="542" x2="1269.3" y2="544.5"/>
		<line class="st4" x1="1265.1" y1="542" x2="1265.1" y2="544.5"/>
		<line class="st4" x1="1260.8" y1="542" x2="1260.8" y2="544.5"/>
		<line class="st4" x1="1248.5" y1="542" x2="1248.5" y2="544.5"/>
		<line class="st4" x1="1244.2" y1="542" x2="1244.2" y2="544.5"/>
		<line class="st4" x1="1240" y1="542" x2="1240" y2="544.5"/>
		<g>
			<polyline class="st1" points="1071.1,655.9 1069.6,653.4 1069.6,645.4 1067.8,643.3 1067.8,629.3 1068.8,625.3 1066.3,622.1 
				1066.3,559.6 1068.8,554.3 1064.6,554.3 1064.6,539.3 			"/>
			<path class="st1" d="M1166.3,531.1c-1.7,2.5-3,5.8-3.4,10c-6,7.1-13.4,6.5-13.4,6.5l4.9,6.6h-9.5l2.5,5.3v62.5l-2.5,3.2l1,4v14
				l-1.8,2.2v8l-1.5,2.5v7.8"/>
			<path class="st1" d="M1217.6,531.1c1.7,2.5,3,5.8,3.4,10c6,7.1,13.4,6.5,13.4,6.5l-4.9,6.6h9.5l-2.5,5.3v62.5l2.5,3.2l-1,4v14
				l1.8,2.2v8l1.5,2.5v7.8"/>
			<polyline class="st1" points="1312.8,655.9 1314.3,653.4 1314.3,645.4 1316.1,643.3 1316.1,629.3 1315.1,625.3 1317.6,622.1 
				1317.6,559.6 1315.1,554.3 1319.3,554.3 			"/>
			<path class="st1" d="M1064.6,539.3h92.6v-12.4h8.9v4.2l0.2,0.1c4.6-6.8,12.3-8.3,12.3-8.3s-3.4-2.8-5.9-6.4c5.4,0,7-4.8,7-4.8
				s0,0,2.1,0c0.8-4.9,3.9-8.1,10.2-8.1c6.3,0,9.4,3.2,10.2,8.1c2.1,0,2.1,0,2.1,0s1.6,4.8,7,4.8c-2.5,3.6-5.9,6.4-5.9,6.4
				s7.6,1.5,12.3,8.3l0.2-0.1v-4.2h8.9v12.4h92.6v-3.5c0,0,8.8,0,13.5,0c2.9-8.8,11.9-6,11.9-6v-4.4l-2.6-3.5h3.1
				c0-5.5,4.5-10,10-10s10,4.5,10,10h3.1l-2.6,3.5v4.4c0,0,9-2.8,11.9,6c4.8,0,13.5,0,13.5,0v18.5h4.2l-2.5,5.3v62.5l2.5,3.2l-1,4
				v14l1.8,2.2v8l1.5,2.5v7.8h-42.5h-42.5h-120.8h-120.8h-42.5h-42.5v-7.8l1.5-2.5v-8l1.8-2.2v-14l-1-4l2.5-3.2v-62.5l-2.5-5.3h4.2
				v-18.5c0,0,8.8,0,13.5,0c2.9-8.8,11.9-6,11.9-6v-4.4l-2.6-3.5h3.1c0-5.5,4.5-10,10-10c5.5,0,10,4.5,10,10h3.1l-2.6,3.5v4.4
				c0,0,9-2.8,11.9,6c4.8,0,13.5,0,13.5,0L1064.6,539.3L1064.6,539.3z"/>
			<line class="st1" x1="1319.3" y1="539.3" x2="1319.3" y2="554.3"/>
			<line class="st1" x1="1312.8" y1="663.8" x2="1312.8" y2="655.9"/>
			<line class="st1" x1="1071.1" y1="655.9" x2="1071.1" y2="663.8"/>
		</g>
		<path class="st4" d="M1215.1,554.3c0-6.1,0-8.3,0-11s-1.4-8.7-9.2-7.4c0,2.8,0,2.8,0,2.8s-9.3-7.8-13.9-3"/>
		<path class="st4" d="M1191.9,522.4c0,0,1.1-5.9,7.9-6.6c0,3.1-1,8.6-7.9,12.8"/>
		<line class="st4" x1="1191.9" y1="503.6" x2="1191.9" y2="455.5"/>
	</g>
	<g>
		<circle class="st3" cx="1556.1" cy="555.3" r="5"/>
		<polygon class="st3" points="1559.6,567.9 1556.1,567.9 1552.7,567.9 1551.6,574.3 1560.7,574.3 		"/>
		<path class="st3" d="M1633.2,584.6h-6.4v-47.7l6.4-6.5h-11.7V513c0-7-4.8-15-13.4-16.2v-11.2c0-3-2.4-5.4-5.4-5.4
			c-3,0-5.4,2.4-5.4,5.4v11.2c-8.7,1.2-13.4,9.2-13.4,16.2c0,0,0,17.4,0,17.4h-11.7l6.4,6.5v47.7c0,0-9.2-10.8-22.3-10.8
			c-13.2,0-22.3,10.8-22.3,10.8v-47.7l6.4-6.5h-11.7c0,0,0-17.4,0-17.4c0-7-4.8-15-13.4-16.2v-11.2c0-3-2.4-5.4-5.4-5.4
			c-3,0-5.4,2.4-5.4,5.4v11.2c-8.7,1.2-13.4,9.2-13.4,16.2v17.4c0,0-11.7,0-11.7,0l6.4,6.5v47.7h-6.4l6.4,6.5v54.8l-2.8,3.3v14.5
			h26.9h26.9h19.6h19.6h26.9h26.9v-14.5l-2.8-3.3v-54.8L1633.2,584.6z"/>
		<line class="st4" x1="1485.5" y1="591.1" x2="1491.9" y2="591.1"/>
		<line class="st4" x1="1491.9" y1="584.6" x2="1485.5" y2="584.6"/>
		<line class="st4" x1="1490.7" y1="591.1" x2="1490.7" y2="663.8"/>
		<polyline class="st4" points="1491.9,584.6 1504.7,584.6 1498.3,591.1 1491.9,591.1 		"/>
		<polyline class="st4" points="1498.3,591.1 1498.3,645.9 1501.1,649.3 1501.1,663.8 		"/>
		<line class="st4" x1="1493" y1="591.1" x2="1493" y2="663.8"/>
		<line class="st4" x1="1485.5" y1="536.9" x2="1491.9" y2="536.9"/>
		<line class="st4" x1="1491.9" y1="530.4" x2="1490.8" y2="530.4"/>
		<line class="st4" x1="1490.7" y1="536.9" x2="1490.7" y2="584.6"/>
		<polyline class="st4" points="1491.9,530.4 1504.7,530.4 1498.3,536.9 1491.9,536.9 		"/>
		<line class="st4" x1="1498.3" y1="536.9" x2="1498.3" y2="584.6"/>
		<line class="st4" x1="1493" y1="536.9" x2="1493" y2="584.6"/>
		<line class="st4" x1="1490.7" y1="513" x2="1509.6" y2="513"/>
		<path class="st4" d="M1504.2,496.8c4.1,0,5.4,0,5.4,0"/>
		<path class="st4" d="M1506.9,521.2c0-1.5,1.2-2.8,2.8-2.8s2.8,1.2,2.8,2.8v9.2h-5.5V521.2z"/>
		<path class="st4" d="M1508.1,486.1c0-0.9,0.7-1.6,1.6-1.6s1.6,0.7,1.6,1.6v5.3h-3.2L1508.1,486.1L1508.1,486.1z"/>
		<path class="st4" d="M1552.7,614.8c0-1.9,1.5-3.4,3.4-3.4s3.4,1.5,3.4,3.4v11.5h-6.8L1552.7,614.8L1552.7,614.8z"/>
		<path class="st4" d="M1503.3,553.3c0-3.5,2.8-6.3,6.3-6.3s6.3,2.8,6.3,6.3v21.8h-12.6L1503.3,553.3L1503.3,553.3z"/>
		<path class="st4" d="M1596.3,553.3c0-3.5,2.8-6.3,6.3-6.3s6.3,2.8,6.3,6.3v21.8h-12.6L1596.3,553.3L1596.3,553.3z"/>
		<path class="st4" d="M1539.9,613.6c0-1.2,1-2.2,2.2-2.2s2.2,1,2.2,2.2v7.5h-4.4V613.6z"/>
		<line class="st4" x1="1504.7" y1="530.4" x2="1506.9" y2="530.4"/>
		<line class="st4" x1="1498.3" y1="530.4" x2="1498.3" y2="513"/>
		<line class="st4" x1="1509.6" y1="575.1" x2="1498.3" y2="575.1"/>
		<polyline class="st4" points="1507.6,547.2 1505.8,536.9 1509.6,536.9 		"/>
		<line class="st4" x1="1504.7" y1="584.6" x2="1509.6" y2="584.6"/>
		<path class="st4" d="M1512.2,617.8c0,1.4-1.2,2.6-2.6,2.6c-1.4,0-2.6-1.2-2.6-2.6c0-1.4,1.2-2.6,2.6-2.6
			C1511.1,615.2,1512.2,616.3,1512.2,617.8z"/>
		<path class="st4" d="M1512.2,636.3c0,1.4-1.2,2.6-2.6,2.6c-1.4,0-2.6-1.2-2.6-2.6c0-1.4,1.2-2.6,2.6-2.6
			C1511.1,633.7,1512.2,634.8,1512.2,636.3z"/>
		<line class="st4" x1="1509.6" y1="603.1" x2="1498.3" y2="603.1"/>
		<line class="st4" x1="1501.1" y1="649.3" x2="1509.6" y2="649.3"/>
		<line class="st4" x1="1509.6" y1="480.1" x2="1509.6" y2="472"/>
		<line class="st4" x1="1533.8" y1="591.1" x2="1527.4" y2="591.1"/>
		<line class="st4" x1="1527.4" y1="584.6" x2="1533.8" y2="584.6"/>
		<line class="st4" x1="1528.5" y1="591.1" x2="1528.5" y2="663.8"/>
		<polyline class="st4" points="1527.4,584.6 1514.6,584.6 1521,591.1 1527.4,591.1 		"/>
		<polyline class="st4" points="1521,591.1 1521,645.9 1518.2,649.3 1518.2,663.8 		"/>
		<line class="st4" x1="1526.2" y1="591.1" x2="1526.2" y2="663.8"/>
		<line class="st4" x1="1533.8" y1="536.9" x2="1527.4" y2="536.9"/>
		<line class="st4" x1="1527.4" y1="530.4" x2="1528.5" y2="530.4"/>
		<line class="st4" x1="1528.5" y1="536.9" x2="1528.5" y2="584.6"/>
		<polyline class="st4" points="1527.4,530.4 1514.6,530.4 1521,536.9 1527.4,536.9 		"/>
		<line class="st4" x1="1521" y1="536.9" x2="1521" y2="584.6"/>
		<line class="st4" x1="1526.2" y1="536.9" x2="1526.2" y2="584.6"/>
		<line class="st4" x1="1528.5" y1="513" x2="1509.6" y2="513"/>
		<path class="st4" d="M1515.1,496.8c-4.1,0-5.4,0-5.4,0"/>
		<line class="st4" x1="1514.6" y1="530.4" x2="1512.4" y2="530.4"/>
		<line class="st4" x1="1521" y1="530.4" x2="1521" y2="513"/>
		<line class="st4" x1="1509.6" y1="575.1" x2="1521" y2="575.1"/>
		<polyline class="st4" points="1511.7,547.2 1513.5,536.9 1509.6,536.9 		"/>
		<line class="st4" x1="1514.6" y1="584.6" x2="1509.6" y2="584.6"/>
		<line class="st4" x1="1509.6" y1="603.1" x2="1521" y2="603.1"/>
		<line class="st4" x1="1518.2" y1="649.3" x2="1509.6" y2="649.3"/>
		<line class="st4" x1="1509.6" y1="480.1" x2="1509.6" y2="472"/>
		<path class="st4" d="M1556.1,634.7c-3.2,0-9.8,1.8-9.8,9.4s0,19.7,0,19.7"/>
		<path class="st4" d="M1552.7,621.5c-4.7,0-10.6,3.9-10.3,12.2c-3.8,0-8.6,0-8.6,0"/>
		<line class="st4" x1="1542.4" y1="633.7" x2="1542.4" y2="663.8"/>
		<path class="st4" d="M1556.1,599.8c-3.6,0-4.9,3-4.9,5.6c-3.3,0-17.4,0-17.4,0"/>
		<path class="st4" d="M1552.7,591.4c0,1.9,1.5,3.4,3.4,3.4s3.4-1.5,3.4-3.4v-7.2c0-1.9-1.5-3.4-3.4-3.4s-3.4,1.5-3.4,3.4V591.4z"/>
		<path class="st4" d="M1552.7,589.4c-2.2,0-6.7,1.8-6.7,6.4h-12.2"/>
		<polyline class="st4" points="1551.6,574.3 1552.7,567.9 1556.1,567.9 1556.1,560.3 		"/>
		<circle class="st4" cx="1556.1" cy="555.3" r="5"/>
		<line class="st4" x1="1556.1" y1="550.3" x2="1556.1" y2="539.3"/>
		<path class="st4" d="M1559,555.3c0,1.6-1.3,2.9-2.9,2.9s-2.9-1.3-2.9-2.9s1.3-2.9,2.9-2.9S1559,553.7,1559,555.3z"/>
		<line class="st4" x1="1626.8" y1="591.1" x2="1620.4" y2="591.1"/>
		<line class="st4" x1="1620.4" y1="584.6" x2="1626.8" y2="584.6"/>
		<line class="st4" x1="1621.5" y1="591.1" x2="1621.5" y2="663.8"/>
		<polyline class="st4" points="1620.4,584.6 1607.6,584.6 1614,591.1 1620.4,591.1 		"/>
		<polyline class="st4" points="1614,591.1 1614,645.9 1611.2,649.3 1611.2,663.8 		"/>
		<line class="st4" x1="1619.2" y1="591.1" x2="1619.2" y2="663.8"/>
		<line class="st4" x1="1626.8" y1="536.9" x2="1620.4" y2="536.9"/>
		<line class="st4" x1="1620.4" y1="530.4" x2="1621.5" y2="530.4"/>
		<line class="st4" x1="1621.5" y1="536.9" x2="1621.5" y2="584.6"/>
		<polyline class="st4" points="1620.4,530.4 1607.6,530.4 1614,536.9 1620.4,536.9 		"/>
		<line class="st4" x1="1614" y1="536.9" x2="1614" y2="584.6"/>
		<line class="st4" x1="1619.2" y1="536.9" x2="1619.2" y2="584.6"/>
		<line class="st4" x1="1621.5" y1="513" x2="1602.6" y2="513"/>
		<path class="st4" d="M1608.1,496.8c-4.1,0-5.4,0-5.4,0"/>
		<path class="st4" d="M1605.4,521.2c0-1.5-1.2-2.8-2.8-2.8s-2.8,1.2-2.8,2.8v9.2h5.5V521.2z"/>
		<path class="st4" d="M1604.2,486.1c0-0.9-0.7-1.6-1.6-1.6s-1.6,0.7-1.6,1.6v5.3h3.2L1604.2,486.1L1604.2,486.1z"/>
		<path class="st4" d="M1572.4,613.6c0-1.2-1-2.2-2.2-2.2s-2.2,1-2.2,2.2v7.5h4.4V613.6z"/>
		<line class="st4" x1="1607.6" y1="530.4" x2="1605.4" y2="530.4"/>
		<line class="st4" x1="1614" y1="530.4" x2="1614" y2="513"/>
		<line class="st4" x1="1602.6" y1="575.1" x2="1614" y2="575.1"/>
		<polyline class="st4" points="1604.7,547.2 1606.5,536.9 1602.6,536.9 		"/>
		<line class="st4" x1="1607.6" y1="584.6" x2="1602.6" y2="584.6"/>
		<path class="st4" d="M1600.1,617.8c0,1.4,1.2,2.6,2.6,2.6c1.4,0,2.6-1.2,2.6-2.6c0-1.4-1.2-2.6-2.6-2.6S1600.1,616.3,1600.1,617.8
			z"/>
		<path class="st4" d="M1600.1,636.3c0,1.4,1.2,2.6,2.6,2.6c1.4,0,2.6-1.2,2.6-2.6c0-1.4-1.2-2.6-2.6-2.6S1600.1,634.8,1600.1,636.3
			z"/>
		<line class="st4" x1="1602.6" y1="603.1" x2="1614" y2="603.1"/>
		<line class="st4" x1="1611.2" y1="649.3" x2="1602.6" y2="649.3"/>
		<line class="st4" x1="1602.6" y1="480.1" x2="1602.6" y2="472"/>
		<line class="st4" x1="1578.5" y1="591.1" x2="1584.9" y2="591.1"/>
		<line class="st4" x1="1584.9" y1="584.6" x2="1578.5" y2="584.6"/>
		<line class="st4" x1="1583.7" y1="591.1" x2="1583.7" y2="663.8"/>
		<polyline class="st4" points="1584.9,584.6 1597.7,584.6 1591.3,591.1 1584.9,591.1 		"/>
		<polyline class="st4" points="1591.3,591.1 1591.3,645.9 1594.1,649.3 1594.1,663.8 		"/>
		<line class="st4" x1="1586" y1="591.1" x2="1586" y2="663.8"/>
		<line class="st4" x1="1578.5" y1="536.9" x2="1584.9" y2="536.9"/>
		<line class="st4" x1="1584.9" y1="530.4" x2="1583.8" y2="530.4"/>
		<line class="st4" x1="1583.7" y1="536.9" x2="1583.7" y2="584.6"/>
		<polyline class="st4" points="1584.9,530.4 1597.7,530.4 1591.3,536.9 1584.9,536.9 		"/>
		<line class="st4" x1="1591.3" y1="536.9" x2="1591.3" y2="584.6"/>
		<line class="st4" x1="1586" y1="536.9" x2="1586" y2="584.6"/>
		<line class="st4" x1="1583.7" y1="513" x2="1602.6" y2="513"/>
		<path class="st4" d="M1597.2,496.8c4.1,0,5.4,0,5.4,0"/>
		<line class="st4" x1="1597.7" y1="530.4" x2="1599.9" y2="530.4"/>
		<line class="st4" x1="1591.3" y1="530.4" x2="1591.3" y2="513"/>
		<line class="st4" x1="1602.6" y1="575.1" x2="1591.3" y2="575.1"/>
		<polyline class="st4" points="1600.6,547.2 1598.8,536.9 1602.6,536.9 		"/>
		<line class="st4" x1="1597.7" y1="584.6" x2="1602.6" y2="584.6"/>
		<line class="st4" x1="1602.6" y1="603.1" x2="1591.3" y2="603.1"/>
		<line class="st4" x1="1594.1" y1="649.3" x2="1602.6" y2="649.3"/>
		<line class="st4" x1="1602.6" y1="480.1" x2="1602.6" y2="472"/>
		<path class="st4" d="M1556.1,634.7c3.2,0,9.8,1.8,9.8,9.4s0,19.7,0,19.7"/>
		<path class="st4" d="M1559.6,621.5c4.7,0,10.6,3.9,10.3,12.2c3.8,0,8.6,0,8.6,0"/>
		<line class="st4" x1="1569.9" y1="633.7" x2="1569.9" y2="663.8"/>
		<path class="st4" d="M1556.1,599.8c3.6,0,4.9,3,4.9,5.6c3.3,0,17.4,0,17.4,0"/>
		<path class="st4" d="M1559.6,589.4c2.2,0,6.7,1.8,6.7,6.4h12.2"/>
		<polyline class="st4" points="1560.7,574.3 1559.6,567.9 1556.1,567.9 1556.1,560.3 		"/>
		<g>
			<polyline class="st1" points="1533.8,591.1 1533.8,645.9 1536.6,649.3 			"/>
			<polyline class="st1" points="1533.8,591.1 1540.2,584.6 1533.8,584.6 			"/>
			<polyline class="st1" points="1578.5,591.1 1572.1,584.6 1578.5,584.6 			"/>
			<polyline class="st1" points="1575.7,649.3 1578.5,645.9 1578.5,591.1 			"/>
			<path class="st1" d="M1633.2,584.6h-6.4v-47.7l6.4-6.5h-11.7V513c0-7-4.8-15-13.4-16.2v-11.2c0-3-2.4-5.4-5.4-5.4
				c-3,0-5.4,2.4-5.4,5.4v11.2c-8.7,1.2-13.4,9.2-13.4,16.2c0,0,0,17.4,0,17.4h-11.7l6.4,6.5v47.7c0,0-9.2-10.8-22.3-10.8
				c-13.2,0-22.3,10.8-22.3,10.8v-47.7l6.4-6.5h-11.7c0,0,0-17.4,0-17.4c0-7-4.8-15-13.4-16.2v-11.2c0-3-2.4-5.4-5.4-5.4
				c-3,0-5.4,2.4-5.4,5.4v11.2c-8.7,1.2-13.4,9.2-13.4,16.2v17.4c0,0-11.7,0-11.7,0l6.4,6.5v47.7h-6.4l6.4,6.5v54.8l-2.8,3.3v14.5
				h26.9h26.9h19.6h19.6h26.9h26.9v-14.5l-2.8-3.3v-54.8L1633.2,584.6z"/>
			<line class="st1" x1="1536.6" y1="649.3" x2="1536.6" y2="663.8"/>
			<line class="st1" x1="1575.7" y1="663.8" x2="1575.7" y2="649.3"/>
		</g>
		<line class="st4" x1="1498.3" y1="596.8" x2="1521" y2="596.8"/>
		<line class="st4" x1="1591.3" y1="596.8" x2="1614" y2="596.8"/>
	</g>
	<g>
		<g>
			<path class="st3" d="M1639.7,501.5l4.8-2.9l2.9-16.5c0,0-0.3-2.8-3.9-5.9c-3.8-3.4-3.9-7.3-3.9-7.3s-0.1,3.9-3.9,7.3
				c-3.6,3.1-3.9,5.9-3.9,5.9l2.9,16.5L1639.7,501.5z"/>
		</g>
		<g>
			<path class="st3" d="M1667.3,501.5l4.8-2.9l2.9-16.5c0,0-0.3-2.8-3.9-5.9c-3.8-3.4-3.9-7.3-3.9-7.3s-0.1,3.9-3.9,7.3
				c-3.6,3.1-3.9,5.9-3.9,5.9l2.9,16.5L1667.3,501.5z"/>
		</g>
		<g>
			<polygon class="st3" points="1653.4,663.8 1662.8,663.8 1656.9,618.8 1653.4,618.8 1649.9,618.8 1644.1,663.8 			"/>
		</g>
		<path class="st1" d="M1639.7,468.9c0,0-0.1,3.9-3.9,7.3c-3.6,3.1-3.9,5.9-3.9,5.9l2.9,16.5l4.8,2.9"/>
		<line class="st1" x1="1635.3" y1="501.5" x2="1653.6" y2="501.5"/>
		<path class="st1" d="M1639.7,468.9c0,0,0.1,3.9,3.9,7.3c3.6,3.1,3.9,5.9,3.9,5.9l-2.9,16.5l-4.8,2.9"/>
		<path class="st1" d="M1667.3,468.9c0,0,0.1,3.9,3.9,7.3c3.6,3.1,3.9,5.9,3.9,5.9l-2.9,16.5l-4.8,2.9"/>
		<line class="st1" x1="1671.7" y1="501.5" x2="1653.4" y2="501.5"/>
		<path class="st1" d="M1667.3,468.9c0,0-0.1,3.9-3.9,7.3c-3.6,3.1-3.9,5.9-3.9,5.9l2.9,16.5l4.8,2.9"/>
		<line class="st1" x1="1653.4" y1="492" x2="1653.4" y2="618.8"/>
		<polyline class="st1" points="1653.4,618.8 1649.9,618.8 1644.1,663.8 1653.4,663.8 		"/>
		<line class="st1" x1="1650.9" y1="564.9" x2="1656" y2="564.9"/>
		<line class="st1" x1="1650.9" y1="569.3" x2="1656" y2="569.3"/>
		<line class="st1" x1="1650.9" y1="573.7" x2="1656" y2="573.7"/>
		<polyline class="st1" points="1653.4,618.8 1656.9,618.8 1662.8,663.8 1653.4,663.8 		"/>
		<line class="st4" x1="1645.1" y1="656.2" x2="1661.8" y2="656.2"/>
		<line class="st4" x1="1651.9" y1="635.6" x2="1650.8" y2="652.2"/>
		<line class="st4" x1="1655" y1="635.6" x2="1656.1" y2="652.2"/>
		<line class="st4" x1="1648.4" y1="631" x2="1658.5" y2="631"/>
		<line class="st4" x1="1631.9" y1="482.1" x2="1647.5" y2="482.1"/>
		<line class="st4" x1="1659.5" y1="482.1" x2="1675.1" y2="482.1"/>
		<line class="st4" x1="1636.8" y1="482.1" x2="1639.7" y2="501.5"/>
		<line class="st4" x1="1642.7" y1="482.1" x2="1639.7" y2="501.5"/>
		<line class="st4" x1="1664.3" y1="482.1" x2="1667.3" y2="501.5"/>
		<line class="st4" x1="1670.2" y1="482.1" x2="1667.3" y2="501.5"/>
		<path class="st4" d="M1636.7,507c0.6-2,2.7-3.9,6.9-3.9c4.2,0,9.8,5.2,9.8,13.2"/>
		<path class="st4" d="M1670.2,507c-0.6-2-2.7-3.9-6.9-3.9c-4.2,0-9.8,5.2-9.8,13.2"/>
	</g>
	<g>
		<g>
			<path class="st3" d="M1069.3,551.1c34.3,95.9-0.4,96,0,95.9h0C1069.6,647.1,1035,647,1069.3,551.1"/>
		</g>
		<line class="st4" x1="1069.3" y1="663.8" x2="1069.3" y2="602.6"/>
		<path class="st1" d="M1069.3,647c0.4,0.1-34.3,0,0-95.9"/>
		<path class="st1" d="M1069.3,647c-0.4,0.1,34.3,0,0-95.9"/>
	</g>
	<g>
		<path class="st3" d="M1680.3,562c-7,0-12.6,5.6-12.6,12.6h25.2C1692.9,567.7,1687.2,562,1680.3,562z"/>
		<path class="st3" d="M1705.5,562c-7,0-12.6,5.6-12.6,12.6h25.2C1718.1,567.7,1712.4,562,1705.5,562z"/>
		<path class="st3" d="M1678.4,580.2c-2.8,5.2-0.9,11.7,4.3,14.5l10.2-18.8C1687.7,573.1,1681.2,575,1678.4,580.2z"/>
		<path class="st3" d="M1707.4,580.2c2.8,5.2,0.9,11.7-4.3,14.5l-10.2-18.8C1698.1,573.1,1704.6,575,1707.4,580.2z"/>
		<path class="st1" d="M1680.3,562c-7,0-12.6,5.6-12.6,12.6h25.2C1692.9,567.7,1687.2,562,1680.3,562z"/>
		<path class="st1" d="M1705.5,562c-7,0-12.6,5.6-12.6,12.6h25.2C1718.1,567.7,1712.4,562,1705.5,562z"/>
		<path class="st1" d="M1678.4,580.2c-2.8,5.2-0.9,11.7,4.3,14.5l10.2-18.8C1687.7,573.1,1681.2,575,1678.4,580.2z"/>
		<path class="st1" d="M1707.4,580.2c2.8,5.2,0.9,11.7-4.3,14.5l-10.2-18.8C1698.1,573.1,1704.6,575,1707.4,580.2z"/>
		<line class="st4" x1="1692.9" y1="663.8" x2="1692.9" y2="575.2"/>
	</g>
	<g>
		<path class="st3" d="M761.2,572c-7,0-12.6,5.6-12.6,12.6h25.2C773.8,577.7,768.1,572,761.2,572z"/>
		<path class="st3" d="M786.4,572c-7,0-12.6,5.6-12.6,12.6H799C799,577.7,793.3,572,786.4,572z"/>
		<path class="st3" d="M759.2,590.2c-2.8,5.2-0.9,11.7,4.3,14.5l10.2-18.8C768.6,583.1,762.1,585,759.2,590.2z"/>
		<path class="st3" d="M788.3,590.2c2.8,5.2,0.9,11.7-4.3,14.5l-10.2-18.8C779,583.1,785.5,585,788.3,590.2z"/>
		<path class="st1" d="M761.2,572c-7,0-12.6,5.6-12.6,12.6h25.2C773.8,577.7,768.1,572,761.2,572z"/>
		<path class="st1" d="M786.4,572c-7,0-12.6,5.6-12.6,12.6H799C799,577.7,793.3,572,786.4,572z"/>
		<path class="st1" d="M759.2,590.2c-2.8,5.2-0.9,11.7,4.3,14.5l10.2-18.8C768.6,583.1,762.1,585,759.2,590.2z"/>
		<path class="st1" d="M788.3,590.2c2.8,5.2,0.9,11.7-4.3,14.5l-10.2-18.8C779,583.1,785.5,585,788.3,590.2z"/>
		<line class="st4" x1="773.8" y1="663.8" x2="773.8" y2="585.2"/>
	</g>
	<g>
		<g>
			<path class="st3" d="M133.4,572.1c27.9,78-0.3,78.1,0,78h0C133.7,650.2,105.5,650.1,133.4,572.1"/>
		</g>
		<line class="st4" x1="133.4" y1="663.8" x2="133.4" y2="614"/>
		<path class="st1" d="M133.4,650.1c0.3,0.1-27.9,0,0-78"/>
		<path class="st1" d="M133.4,650.1c-0.3,0.1,27.9,0,0-78"/>
	</g>
	<g>
		<g>
			<path class="st3" d="M1433.1,642.8c0,0,34.4-23.9,14.3-33.4c8.6-23.9-4-44.9-14.3-44.9c-10.3,0-22.9,21-14.3,44.9
				C1398.7,618.9,1433.1,642.8,1433.1,642.8z"/>
		</g>
		<g>
			<path class="st1" d="M1433.1,642.8c0,0-34.4-23.9-14.3-33.4c-8.6-23.9,4-44.9,14.3-44.9"/>
			<path class="st1" d="M1433.1,642.8c0,0,34.4-23.9,14.3-33.4c8.6-23.9-4-44.9-14.3-44.9"/>
			<line class="st4" x1="1433.1" y1="580.5" x2="1433.1" y2="663.8"/>
			<line class="st4" x1="1443.4" y1="619.6" x2="1433.1" y2="630"/>
			<line class="st4" x1="1422.8" y1="619.6" x2="1433.1" y2="630"/>
		</g>
	</g>
	<g>
		<g>
			<path class="st3" d="M518.4,642.7c0,0,34.6-24,14.4-33.6c8.6-24-4-45.1-14.4-45.1c-10.4,0-23,21.1-14.4,45.1
				C483.8,618.7,518.4,642.7,518.4,642.7z"/>
		</g>
		<g>
			<path class="st1" d="M518.4,642.7c0,0-34.6-24-14.4-33.6c-8.6-24,4-45.1,14.4-45.1"/>
			<path class="st1" d="M518.4,642.7c0,0,34.6-24,14.4-33.6c8.6-24-4-45.1-14.4-45.1"/>
			<line class="st4" x1="518.4" y1="580.1" x2="518.4" y2="663.8"/>
			<line class="st4" x1="528.7" y1="619.4" x2="518.4" y2="629.8"/>
			<line class="st4" x1="508" y1="619.4" x2="518.4" y2="629.8"/>
		</g>
	</g>
</g>
</svg>
